M48
; DRILL file {KiCad (6.0.1)} date Fri Feb 11 11:56:44 2022
; FORMAT={-:-/ absolute / metric / decimal}
; #@! TF.CreationDate,2022-02-11T11:56:44-05:00
; #@! TF.GenerationSoftware,Kicad,Pcbnew,(6.0.1)
; #@! TF.FileFunction,MixedPlating,1,2
FMAT,2
METRIC
; #@! TA.AperFunction,Plated,PTH,ComponentDrill
T1C0.300
; #@! TA.AperFunction,Plated,PTH,ViaDrill
T2C0.400
; #@! TA.AperFunction,Plated,PTH,ComponentDrill
T3C0.800
; #@! TA.AperFunction,Plated,PTH,ComponentDrill
T4C0.950
; #@! TA.AperFunction,Plated,PTH,ComponentDrill
T5C1.000
%
G90
G05
T1
X116.061Y-100.137
X116.061Y-102.047
X117.361Y-100.137
X117.361Y-102.047
X118.661Y-100.137
X118.661Y-102.047
T2
X97.028Y-105.156
X101.6Y-106.426
X102.108Y-99.568
X102.616Y-105.156
X109.728Y-106.68
X112.014Y-100.584
X113.03Y-100.584
X114.046Y-103.632
X114.3Y-100.076
X114.3Y-101.092
X114.3Y-102.108
X114.808Y-103.632
X120.65Y-100.076
X120.65Y-101.092
X120.65Y-102.108
X121.92Y-100.076
X121.92Y-101.092
X121.92Y-102.108
X122.936Y-100.076
X122.936Y-101.092
X122.936Y-102.108
T3
X87.7Y-100.6
X87.7Y-103.1
T4
X79.756Y-96.6
X79.756Y-99.1
X79.756Y-101.6
X79.756Y-104.1
X79.756Y-106.6
T5
X91.44Y-93.98
X91.44Y-109.22
X93.98Y-93.98
X93.98Y-109.22
X96.52Y-93.98
X96.52Y-109.22
X99.06Y-93.98
X99.06Y-109.22
X101.6Y-93.98
X101.6Y-109.22
X104.14Y-93.98
X104.14Y-109.22
X106.68Y-93.98
X106.68Y-109.22
X109.22Y-93.98
X109.22Y-109.22
X111.76Y-93.98
X111.76Y-109.22
X114.3Y-93.98
X114.3Y-109.22
X116.84Y-93.98
X116.84Y-109.22
X119.38Y-93.98
X119.38Y-109.22
X121.92Y-93.98
X121.92Y-109.22
X124.46Y-93.98
X124.46Y-109.22
T0
M30
