%TF.GenerationSoftware,KiCad,Pcbnew,(6.0.1)*%
%TF.CreationDate,2022-02-11T11:56:36-05:00*%
%TF.ProjectId,POVshield-V3,504f5673-6869-4656-9c64-2d56332e6b69,rev?*%
%TF.SameCoordinates,Original*%
%TF.FileFunction,Legend,Bot*%
%TF.FilePolarity,Positive*%
%FSLAX46Y46*%
G04 Gerber Fmt 4.6, Leading zero omitted, Abs format (unit mm)*
G04 Created by KiCad (PCBNEW (6.0.1)) date 2022-02-11 11:56:36*
%MOMM*%
%LPD*%
G01*
G04 APERTURE LIST*
G04 Aperture macros list*
%AMRoundRect*
0 Rectangle with rounded corners*
0 $1 Rounding radius*
0 $2 $3 $4 $5 $6 $7 $8 $9 X,Y pos of 4 corners*
0 Add a 4 corners polygon primitive as box body*
4,1,4,$2,$3,$4,$5,$6,$7,$8,$9,$2,$3,0*
0 Add four circle primitives for the rounded corners*
1,1,$1+$1,$2,$3*
1,1,$1+$1,$4,$5*
1,1,$1+$1,$6,$7*
1,1,$1+$1,$8,$9*
0 Add four rect primitives between the rounded corners*
20,1,$1+$1,$2,$3,$4,$5,0*
20,1,$1+$1,$4,$5,$6,$7,0*
20,1,$1+$1,$6,$7,$8,$9,0*
20,1,$1+$1,$8,$9,$2,$3,0*%
G04 Aperture macros list end*
%ADD10C,0.150000*%
%ADD11C,0.120000*%
%ADD12R,1.600000X1.600000*%
%ADD13C,1.600000*%
%ADD14RoundRect,0.250000X0.725000X-0.600000X0.725000X0.600000X-0.725000X0.600000X-0.725000X-0.600000X0*%
%ADD15O,1.950000X1.700000*%
%ADD16R,1.700000X1.700000*%
%ADD17O,1.700000X1.700000*%
G04 APERTURE END LIST*
D10*
X83843904Y-106878428D02*
X83986761Y-106830809D01*
X84034380Y-106783190D01*
X84082000Y-106687952D01*
X84082000Y-106545095D01*
X84034380Y-106449857D01*
X83986761Y-106402238D01*
X83891523Y-106354619D01*
X83510571Y-106354619D01*
X83510571Y-107354619D01*
X83843904Y-107354619D01*
X83939142Y-107307000D01*
X83986761Y-107259380D01*
X84034380Y-107164142D01*
X84034380Y-107068904D01*
X83986761Y-106973666D01*
X83939142Y-106926047D01*
X83843904Y-106878428D01*
X83510571Y-106878428D01*
X84462952Y-106640333D02*
X84939142Y-106640333D01*
X84367714Y-106354619D02*
X84701047Y-107354619D01*
X85034380Y-106354619D01*
X85224857Y-107354619D02*
X85796285Y-107354619D01*
X85510571Y-106354619D02*
X85510571Y-107354619D01*
X83510571Y-98607619D02*
X83510571Y-99607619D01*
X83748666Y-99607619D01*
X83891523Y-99560000D01*
X83986761Y-99464761D01*
X84034380Y-99369523D01*
X84082000Y-99179047D01*
X84082000Y-99036190D01*
X84034380Y-98845714D01*
X83986761Y-98750476D01*
X83891523Y-98655238D01*
X83748666Y-98607619D01*
X83510571Y-98607619D01*
X84462952Y-98893333D02*
X84939142Y-98893333D01*
X84367714Y-98607619D02*
X84701047Y-99607619D01*
X85034380Y-98607619D01*
X85224857Y-99607619D02*
X85796285Y-99607619D01*
X85510571Y-98607619D02*
X85510571Y-99607619D01*
X77285904Y-97904761D02*
X77857333Y-97904761D01*
X77971619Y-97866666D01*
X78047809Y-97790476D01*
X78085904Y-97676190D01*
X78085904Y-97600000D01*
X78085904Y-98666666D02*
X78085904Y-98285714D01*
X77285904Y-98285714D01*
X78009714Y-99390476D02*
X78047809Y-99352380D01*
X78085904Y-99238095D01*
X78085904Y-99161904D01*
X78047809Y-99047619D01*
X77971619Y-98971428D01*
X77895428Y-98933333D01*
X77743047Y-98895238D01*
X77628761Y-98895238D01*
X77476380Y-98933333D01*
X77400190Y-98971428D01*
X77324000Y-99047619D01*
X77285904Y-99161904D01*
X77285904Y-99238095D01*
X77324000Y-99352380D01*
X77362095Y-99390476D01*
X77285904Y-99961904D02*
X77857333Y-99961904D01*
X77971619Y-99923809D01*
X78047809Y-99847619D01*
X78085904Y-99733333D01*
X78085904Y-99657142D01*
X78085904Y-100723809D02*
X78085904Y-100342857D01*
X77285904Y-100342857D01*
X78009714Y-101447619D02*
X78047809Y-101409523D01*
X78085904Y-101295238D01*
X78085904Y-101219047D01*
X78047809Y-101104761D01*
X77971619Y-101028571D01*
X77895428Y-100990476D01*
X77743047Y-100952380D01*
X77628761Y-100952380D01*
X77476380Y-100990476D01*
X77400190Y-101028571D01*
X77324000Y-101104761D01*
X77285904Y-101219047D01*
X77285904Y-101295238D01*
X77324000Y-101409523D01*
X77362095Y-101447619D01*
X77285904Y-102019047D02*
X77857333Y-102019047D01*
X77971619Y-101980952D01*
X78047809Y-101904761D01*
X78085904Y-101790476D01*
X78085904Y-101714285D01*
X78085904Y-102780952D02*
X78085904Y-102400000D01*
X77285904Y-102400000D01*
X78009714Y-103504761D02*
X78047809Y-103466666D01*
X78085904Y-103352380D01*
X78085904Y-103276190D01*
X78047809Y-103161904D01*
X77971619Y-103085714D01*
X77895428Y-103047619D01*
X77743047Y-103009523D01*
X77628761Y-103009523D01*
X77476380Y-103047619D01*
X77400190Y-103085714D01*
X77324000Y-103161904D01*
X77285904Y-103276190D01*
X77285904Y-103352380D01*
X77324000Y-103466666D01*
X77362095Y-103504761D01*
X77285904Y-104076190D02*
X77857333Y-104076190D01*
X77971619Y-104038095D01*
X78047809Y-103961904D01*
X78085904Y-103847619D01*
X78085904Y-103771428D01*
X78085904Y-104838095D02*
X78085904Y-104457142D01*
X77285904Y-104457142D01*
X78009714Y-105561904D02*
X78047809Y-105523809D01*
X78085904Y-105409523D01*
X78085904Y-105333333D01*
X78047809Y-105219047D01*
X77971619Y-105142857D01*
X77895428Y-105104761D01*
X77743047Y-105066666D01*
X77628761Y-105066666D01*
X77476380Y-105104761D01*
X77400190Y-105142857D01*
X77324000Y-105219047D01*
X77285904Y-105333333D01*
X77285904Y-105409523D01*
X77324000Y-105523809D01*
X77362095Y-105561904D01*
X83248666Y-97067619D02*
X83582000Y-96067619D01*
X83915333Y-97067619D01*
X84820095Y-96162857D02*
X84772476Y-96115238D01*
X84629619Y-96067619D01*
X84534380Y-96067619D01*
X84391523Y-96115238D01*
X84296285Y-96210476D01*
X84248666Y-96305714D01*
X84201047Y-96496190D01*
X84201047Y-96639047D01*
X84248666Y-96829523D01*
X84296285Y-96924761D01*
X84391523Y-97020000D01*
X84534380Y-97067619D01*
X84629619Y-97067619D01*
X84772476Y-97020000D01*
X84820095Y-96972380D01*
X85820095Y-96162857D02*
X85772476Y-96115238D01*
X85629619Y-96067619D01*
X85534380Y-96067619D01*
X85391523Y-96115238D01*
X85296285Y-96210476D01*
X85248666Y-96305714D01*
X85201047Y-96496190D01*
X85201047Y-96639047D01*
X85248666Y-96829523D01*
X85296285Y-96924761D01*
X85391523Y-97020000D01*
X85534380Y-97067619D01*
X85629619Y-97067619D01*
X85772476Y-97020000D01*
X85820095Y-96972380D01*
X83986761Y-101242857D02*
X83939142Y-101195238D01*
X83796285Y-101147619D01*
X83701047Y-101147619D01*
X83558190Y-101195238D01*
X83462952Y-101290476D01*
X83415333Y-101385714D01*
X83367714Y-101576190D01*
X83367714Y-101719047D01*
X83415333Y-101909523D01*
X83462952Y-102004761D01*
X83558190Y-102100000D01*
X83701047Y-102147619D01*
X83796285Y-102147619D01*
X83939142Y-102100000D01*
X83986761Y-102052380D01*
X84891523Y-101147619D02*
X84415333Y-101147619D01*
X84415333Y-102147619D01*
X85224857Y-101147619D02*
X85224857Y-102147619D01*
X85796285Y-101147619D02*
X85367714Y-101719047D01*
X85796285Y-102147619D02*
X85224857Y-101576190D01*
X83820095Y-104640000D02*
X83724857Y-104687619D01*
X83582000Y-104687619D01*
X83439142Y-104640000D01*
X83343904Y-104544761D01*
X83296285Y-104449523D01*
X83248666Y-104259047D01*
X83248666Y-104116190D01*
X83296285Y-103925714D01*
X83343904Y-103830476D01*
X83439142Y-103735238D01*
X83582000Y-103687619D01*
X83677238Y-103687619D01*
X83820095Y-103735238D01*
X83867714Y-103782857D01*
X83867714Y-104116190D01*
X83677238Y-104116190D01*
X84296285Y-103687619D02*
X84296285Y-104687619D01*
X84867714Y-103687619D01*
X84867714Y-104687619D01*
X85343904Y-103687619D02*
X85343904Y-104687619D01*
X85582000Y-104687619D01*
X85724857Y-104640000D01*
X85820095Y-104544761D01*
X85867714Y-104449523D01*
X85915333Y-104259047D01*
X85915333Y-104116190D01*
X85867714Y-103925714D01*
X85820095Y-103830476D01*
X85724857Y-103735238D01*
X85582000Y-103687619D01*
X85343904Y-103687619D01*
G36*
X100272216Y-96241843D02*
G01*
X100296467Y-96162465D01*
X100331555Y-96097666D01*
X100392085Y-96026535D01*
X100467559Y-95977623D01*
X100493589Y-95967367D01*
X100577916Y-95953072D01*
X100666560Y-95961629D01*
X100751119Y-95991532D01*
X100823189Y-96041278D01*
X100856185Y-96072254D01*
X100856410Y-96036701D01*
X100858104Y-96011199D01*
X100870803Y-95981389D01*
X100900584Y-95968056D01*
X100952927Y-95967256D01*
X101024834Y-95971818D01*
X101028669Y-96554757D01*
X101032503Y-97137696D01*
X100822547Y-97137696D01*
X100838405Y-96714052D01*
X100780419Y-96752425D01*
X100749323Y-96769433D01*
X100672741Y-96792817D01*
X100590094Y-96799127D01*
X100514434Y-96786683D01*
X100460578Y-96760383D01*
X100396134Y-96709882D01*
X100339100Y-96646149D01*
X100297876Y-96577307D01*
X100280271Y-96526624D01*
X100264155Y-96434871D01*
X100261785Y-96348276D01*
X100460538Y-96348276D01*
X100465245Y-96427047D01*
X100484451Y-96501450D01*
X100517990Y-96564764D01*
X100565696Y-96610264D01*
X100591371Y-96622869D01*
X100656517Y-96635474D01*
X100725698Y-96628789D01*
X100786947Y-96603196D01*
X100826855Y-96577048D01*
X100826630Y-96391754D01*
X100826615Y-96385105D01*
X100825577Y-96314020D01*
X100823175Y-96253672D01*
X100819748Y-96210258D01*
X100815632Y-96189974D01*
X100812585Y-96186205D01*
X100788777Y-96166043D01*
X100753529Y-96142367D01*
X100691529Y-96117255D01*
X100620526Y-96114723D01*
X100554102Y-96138957D01*
X100535059Y-96152978D01*
X100495279Y-96204519D01*
X100470494Y-96271859D01*
X100460538Y-96348276D01*
X100261785Y-96348276D01*
X100261457Y-96336295D01*
X100272216Y-96241843D01*
G37*
G36*
X95958033Y-96785733D02*
G01*
X95415423Y-96785733D01*
X95415423Y-96624416D01*
X95767386Y-96624416D01*
X95767386Y-95964485D01*
X95958033Y-95964485D01*
X95958033Y-96785733D01*
G37*
G36*
X95884860Y-96935230D02*
G01*
X95939782Y-96957274D01*
X95974962Y-96998804D01*
X95987363Y-97057037D01*
X95984806Y-97084386D01*
X95961593Y-97135814D01*
X95917567Y-97169564D01*
X95856861Y-97181691D01*
X95824158Y-97178564D01*
X95770880Y-97156661D01*
X95734129Y-97118847D01*
X95716835Y-97071074D01*
X95721931Y-97019290D01*
X95752344Y-96969448D01*
X95765958Y-96956428D01*
X95801377Y-96937548D01*
X95851267Y-96932384D01*
X95884860Y-96935230D01*
G37*
G36*
X99972611Y-95967482D02*
G01*
X100071601Y-95971818D01*
X100070813Y-96280707D01*
X100070602Y-96346976D01*
X100069942Y-96434657D01*
X100068504Y-96500431D01*
X100065846Y-96548906D01*
X100061525Y-96584691D01*
X100055098Y-96612396D01*
X100046120Y-96636630D01*
X100034151Y-96662001D01*
X100014135Y-96695741D01*
X99958169Y-96752639D01*
X99888088Y-96788118D01*
X99808372Y-96801752D01*
X99723500Y-96793118D01*
X99637951Y-96761789D01*
X99556204Y-96707342D01*
X99545528Y-96698505D01*
X99517281Y-96677011D01*
X99502095Y-96668412D01*
X99500581Y-96669311D01*
X99494359Y-96688044D01*
X99489547Y-96723406D01*
X99484996Y-96778400D01*
X99408004Y-96782833D01*
X99331012Y-96787265D01*
X99331012Y-95964485D01*
X99521659Y-95964485D01*
X99521659Y-96519475D01*
X99581732Y-96570895D01*
X99641278Y-96610567D01*
X99706034Y-96631851D01*
X99766730Y-96631410D01*
X99818042Y-96609345D01*
X99854645Y-96565756D01*
X99859371Y-96552034D01*
X99865620Y-96512203D01*
X99869961Y-96449329D01*
X99872515Y-96361328D01*
X99873405Y-96246119D01*
X99873622Y-95963145D01*
X99972611Y-95967482D01*
G37*
G36*
X104296851Y-95967454D02*
G01*
X104335563Y-95965788D01*
X104361743Y-95969100D01*
X104374099Y-95982089D01*
X104381029Y-96008886D01*
X104390189Y-96054682D01*
X104433333Y-96023960D01*
X104477004Y-95996673D01*
X104525136Y-95972103D01*
X104588332Y-95954317D01*
X104675189Y-95955973D01*
X104765481Y-95984735D01*
X104819031Y-96015031D01*
X104891834Y-96081950D01*
X104943476Y-96169138D01*
X104973974Y-96276624D01*
X104983341Y-96404439D01*
X104975006Y-96506395D01*
X104947092Y-96608278D01*
X104900677Y-96689953D01*
X104836896Y-96750022D01*
X104756887Y-96787088D01*
X104661786Y-96799754D01*
X104628029Y-96797438D01*
X104555371Y-96781041D01*
X104485695Y-96752868D01*
X104432128Y-96717614D01*
X104428762Y-96714693D01*
X104420318Y-96710253D01*
X104414806Y-96715918D01*
X104411910Y-96735526D01*
X104411314Y-96772916D01*
X104412703Y-96831928D01*
X104415759Y-96916400D01*
X104424264Y-97137696D01*
X104214163Y-97137696D01*
X104217997Y-96554757D01*
X104220539Y-96168363D01*
X104419811Y-96168363D01*
X104420011Y-96558423D01*
X104471685Y-96593615D01*
X104476744Y-96596908D01*
X104531893Y-96621868D01*
X104592572Y-96635387D01*
X104653178Y-96632297D01*
X104710390Y-96605616D01*
X104752162Y-96555068D01*
X104777677Y-96481706D01*
X104786117Y-96386579D01*
X104785862Y-96372725D01*
X104773535Y-96282806D01*
X104744481Y-96206231D01*
X104701115Y-96149732D01*
X104673567Y-96132118D01*
X104615050Y-96117094D01*
X104547997Y-96119321D01*
X104482138Y-96139264D01*
X104419811Y-96168363D01*
X104220539Y-96168363D01*
X104221832Y-95971818D01*
X104296851Y-95967454D01*
G37*
G36*
X102380674Y-101570415D02*
G01*
X102253755Y-101502936D01*
X102148449Y-101418847D01*
X102115863Y-101385492D01*
X102088250Y-101352478D01*
X102082145Y-101336475D01*
X102097723Y-101338267D01*
X102135155Y-101358639D01*
X102154255Y-101369516D01*
X102200779Y-101392454D01*
X102256451Y-101417054D01*
X102314140Y-101440474D01*
X102366713Y-101459875D01*
X102407037Y-101472414D01*
X102427981Y-101475253D01*
X102428968Y-101469778D01*
X102413088Y-101451905D01*
X102381107Y-101427071D01*
X102376105Y-101423548D01*
X102296353Y-101352572D01*
X102221665Y-101260159D01*
X102156623Y-101153743D01*
X102105809Y-101040756D01*
X102073806Y-100928631D01*
X102066474Y-100875460D01*
X102061559Y-100801987D01*
X102061445Y-100731973D01*
X102066058Y-100623305D01*
X102148250Y-100746956D01*
X102178156Y-100790778D01*
X102235301Y-100869285D01*
X102293268Y-100943195D01*
X102347891Y-101007487D01*
X102395004Y-101057139D01*
X102430442Y-101087128D01*
X102467168Y-101111192D01*
X102425395Y-101019063D01*
X102413630Y-100991966D01*
X102383943Y-100912755D01*
X102359707Y-100832769D01*
X102343454Y-100761025D01*
X102337711Y-100706537D01*
X102338464Y-100691837D01*
X102342911Y-100686204D01*
X102353224Y-100703217D01*
X102371532Y-100745317D01*
X102385631Y-100777682D01*
X102468910Y-100925630D01*
X102575051Y-101056512D01*
X102701672Y-101167760D01*
X102846392Y-101256810D01*
X102863420Y-101265242D01*
X102904995Y-101282893D01*
X102924919Y-101283573D01*
X102925640Y-101266240D01*
X102909601Y-101229850D01*
X102901557Y-101213868D01*
X102884666Y-101176155D01*
X102884039Y-101162390D01*
X102900523Y-101171679D01*
X102934967Y-101203130D01*
X102965852Y-101230276D01*
X103009708Y-101264737D01*
X103057792Y-101299824D01*
X103103338Y-101330778D01*
X103139582Y-101352841D01*
X103159758Y-101361252D01*
X103156052Y-101354260D01*
X103135671Y-101330314D01*
X103101539Y-101293360D01*
X103057433Y-101247597D01*
X103032040Y-101220769D01*
X102978310Y-101158293D01*
X102931751Y-101096921D01*
X102899642Y-101045952D01*
X102894969Y-101036891D01*
X102870987Y-100985651D01*
X102846901Y-100927811D01*
X102825123Y-100870047D01*
X102808065Y-100819036D01*
X102798141Y-100781455D01*
X102797762Y-100763979D01*
X102799208Y-100764043D01*
X102814187Y-100777526D01*
X102840906Y-100807905D01*
X102874759Y-100850030D01*
X102896030Y-100877406D01*
X102936286Y-100928574D01*
X102960932Y-100958479D01*
X102971413Y-100968654D01*
X102969174Y-100960637D01*
X102955661Y-100935964D01*
X102939566Y-100904997D01*
X102906399Y-100823951D01*
X102876719Y-100730288D01*
X102853876Y-100635293D01*
X102841217Y-100550251D01*
X102840074Y-100530958D01*
X102840750Y-100469684D01*
X102846172Y-100402065D01*
X102855244Y-100335235D01*
X102866869Y-100276327D01*
X102879952Y-100232474D01*
X102893394Y-100210808D01*
X102896538Y-100213251D01*
X102902833Y-100237137D01*
X102909049Y-100281003D01*
X102914209Y-100338842D01*
X102916055Y-100362771D01*
X102923267Y-100430738D01*
X102932251Y-100490965D01*
X102941489Y-100532673D01*
X102948466Y-100555170D01*
X102956632Y-100576932D01*
X102960999Y-100573665D01*
X102964682Y-100547338D01*
X102977517Y-100469194D01*
X103023262Y-100320328D01*
X103094011Y-100183199D01*
X103187535Y-100061004D01*
X103301606Y-99956939D01*
X103433996Y-99874201D01*
X103511402Y-99835165D01*
X103457828Y-99941549D01*
X103440981Y-99975898D01*
X103402224Y-100061178D01*
X103365844Y-100149075D01*
X103334594Y-100232411D01*
X103311230Y-100304009D01*
X103298507Y-100356691D01*
X103289189Y-100415352D01*
X103330222Y-100364024D01*
X103339738Y-100352288D01*
X103387023Y-100297306D01*
X103440505Y-100239152D01*
X103493956Y-100184265D01*
X103541149Y-100139083D01*
X103575855Y-100110047D01*
X103587542Y-100101957D01*
X103600248Y-100095565D01*
X103598989Y-100103827D01*
X103582599Y-100129713D01*
X103549912Y-100176194D01*
X103522077Y-100217146D01*
X103448067Y-100350454D01*
X103393276Y-100489864D01*
X103359142Y-100630005D01*
X103347101Y-100765504D01*
X103358593Y-100890989D01*
X103367930Y-100937671D01*
X103404022Y-100877146D01*
X103416727Y-100856877D01*
X103436115Y-100830557D01*
X103446523Y-100823029D01*
X103447738Y-100827605D01*
X103445722Y-100853792D01*
X103438115Y-100893699D01*
X103436555Y-100901153D01*
X103429759Y-100951413D01*
X103424899Y-101016375D01*
X103422941Y-101083927D01*
X103423085Y-101134614D01*
X103425037Y-101177270D01*
X103430490Y-101202381D01*
X103441083Y-101216514D01*
X103458454Y-101226237D01*
X103467169Y-101229926D01*
X103489591Y-101233376D01*
X103512417Y-101221944D01*
X103544978Y-101191928D01*
X103562031Y-101176358D01*
X103598121Y-101151203D01*
X103626130Y-101141275D01*
X103628966Y-101141198D01*
X103643398Y-101137405D01*
X103657950Y-101125576D01*
X103674372Y-101102495D01*
X103694417Y-101064944D01*
X103719836Y-101009707D01*
X103752381Y-100933568D01*
X103793802Y-100833308D01*
X103866930Y-100645871D01*
X103990796Y-100277762D01*
X104092289Y-99902317D01*
X104169832Y-99525719D01*
X104221849Y-99154151D01*
X104228101Y-99085611D01*
X104235684Y-98964353D01*
X104240621Y-98830792D01*
X104242979Y-98690120D01*
X104242824Y-98547535D01*
X104240225Y-98408229D01*
X104235248Y-98277399D01*
X104227961Y-98160239D01*
X104218432Y-98061943D01*
X104206727Y-97987707D01*
X104203523Y-97975372D01*
X104195774Y-97963015D01*
X104179393Y-97954173D01*
X104149238Y-97947283D01*
X104100166Y-97940782D01*
X104027035Y-97933107D01*
X103977049Y-97927931D01*
X103876371Y-97917026D01*
X103771771Y-97905218D01*
X103679222Y-97894288D01*
X103519724Y-97877301D01*
X103301659Y-97860393D01*
X103076594Y-97849148D01*
X102856329Y-97844123D01*
X102652663Y-97845875D01*
X102620745Y-97846820D01*
X102517589Y-97850936D01*
X102422092Y-97856856D01*
X102326956Y-97865300D01*
X102224882Y-97876985D01*
X102108575Y-97892628D01*
X101970735Y-97912948D01*
X101894870Y-97924351D01*
X101774722Y-97942062D01*
X101655935Y-97959197D01*
X101545415Y-97974777D01*
X101450067Y-97987820D01*
X101376797Y-97997344D01*
X101355448Y-97999875D01*
X101249148Y-98009757D01*
X101130765Y-98017098D01*
X101006196Y-98021848D01*
X100881335Y-98023955D01*
X100762078Y-98023370D01*
X100654321Y-98020040D01*
X100563960Y-98013915D01*
X100496890Y-98004944D01*
X100453596Y-97995436D01*
X100358205Y-97969843D01*
X100245519Y-97935110D01*
X100121529Y-97893292D01*
X99992225Y-97846444D01*
X99863597Y-97796621D01*
X99741636Y-97745877D01*
X99735433Y-97743183D01*
X99664529Y-97711612D01*
X99582462Y-97673928D01*
X99493008Y-97631981D01*
X99399940Y-97587620D01*
X99307033Y-97542696D01*
X99218063Y-97499058D01*
X99136805Y-97458558D01*
X99067033Y-97423046D01*
X99012522Y-97394370D01*
X98977048Y-97374382D01*
X98964384Y-97364932D01*
X98965307Y-97364767D01*
X98986940Y-97364126D01*
X99036339Y-97363505D01*
X99112255Y-97362908D01*
X99213437Y-97362337D01*
X99338635Y-97361793D01*
X99486600Y-97361280D01*
X99656081Y-97360800D01*
X99845829Y-97360354D01*
X100054594Y-97359946D01*
X100281126Y-97359577D01*
X100524175Y-97359250D01*
X100782491Y-97358967D01*
X101054825Y-97358730D01*
X101339926Y-97358542D01*
X101636544Y-97358405D01*
X101943429Y-97358320D01*
X102259333Y-97358292D01*
X102583004Y-97358321D01*
X106201624Y-97358969D01*
X106142963Y-97389922D01*
X106099306Y-97411803D01*
X106031573Y-97444038D01*
X105947029Y-97483204D01*
X105850917Y-97526948D01*
X105748482Y-97572918D01*
X105644967Y-97618762D01*
X105545615Y-97662127D01*
X105455670Y-97700662D01*
X105380377Y-97732013D01*
X105236737Y-97786795D01*
X105017042Y-97855178D01*
X104785478Y-97908251D01*
X104659863Y-97932552D01*
X104642154Y-98228051D01*
X104627913Y-98432284D01*
X104586459Y-98843640D01*
X104529174Y-99237781D01*
X104456389Y-99613447D01*
X104368433Y-99969381D01*
X104265636Y-100304322D01*
X104148327Y-100617012D01*
X104016837Y-100906193D01*
X103871494Y-101170606D01*
X103804979Y-101280594D01*
X103843007Y-101290837D01*
X103866413Y-101299809D01*
X103907239Y-101326945D01*
X103938229Y-101360863D01*
X103950527Y-101393139D01*
X103952714Y-101407737D01*
X103963960Y-101419913D01*
X103971337Y-101416818D01*
X103995490Y-101394198D01*
X104029169Y-101353607D01*
X104068597Y-101299765D01*
X104109994Y-101237394D01*
X104121357Y-101219799D01*
X104143060Y-101190779D01*
X104153246Y-101187760D01*
X104152741Y-101211377D01*
X104142368Y-101262263D01*
X104139992Y-101273521D01*
X104136631Y-101304725D01*
X104140854Y-101317257D01*
X104148712Y-101314486D01*
X104175303Y-101293481D01*
X104212520Y-101256055D01*
X104256114Y-101207248D01*
X104301833Y-101152103D01*
X104345427Y-101095657D01*
X104382644Y-101042953D01*
X104409234Y-100999031D01*
X104426132Y-100964767D01*
X104464046Y-100871510D01*
X104494621Y-100773222D01*
X104515035Y-100679818D01*
X104522467Y-100601208D01*
X104522996Y-100580635D01*
X104526612Y-100551974D01*
X104532524Y-100545174D01*
X104539477Y-100558568D01*
X104548119Y-100598803D01*
X104554050Y-100656885D01*
X104556868Y-100725925D01*
X104556167Y-100799035D01*
X104551543Y-100869326D01*
X104548723Y-100898251D01*
X104544129Y-100951534D01*
X104541726Y-100989158D01*
X104541991Y-101004371D01*
X104543040Y-101004887D01*
X104554778Y-100993148D01*
X104574398Y-100959509D01*
X104599732Y-100908687D01*
X104628613Y-100845405D01*
X104658872Y-100774383D01*
X104688341Y-100700339D01*
X104714853Y-100627996D01*
X104725472Y-100597498D01*
X104749547Y-100529439D01*
X104766592Y-100484714D01*
X104778428Y-100460065D01*
X104786874Y-100452236D01*
X104793748Y-100457971D01*
X104800870Y-100474012D01*
X104819930Y-100528329D01*
X104852390Y-100677623D01*
X104858843Y-100830268D01*
X104839761Y-100981253D01*
X104795619Y-101125566D01*
X104726887Y-101258197D01*
X104723085Y-101264108D01*
X104697403Y-101305885D01*
X104681318Y-101335401D01*
X104678173Y-101346587D01*
X104686571Y-101344201D01*
X104717214Y-101325388D01*
X104762392Y-101290567D01*
X104818007Y-101243003D01*
X104879955Y-101185962D01*
X104889788Y-101176632D01*
X104933174Y-101136866D01*
X104959290Y-101116380D01*
X104970642Y-101113514D01*
X104969740Y-101126610D01*
X104968931Y-101129250D01*
X104927750Y-101219854D01*
X104862288Y-101311245D01*
X104776950Y-101398879D01*
X104676139Y-101478217D01*
X104564262Y-101544716D01*
X104427144Y-101613976D01*
X104500469Y-101604195D01*
X104521635Y-101601346D01*
X104578424Y-101593511D01*
X104625123Y-101586834D01*
X104636593Y-101585177D01*
X104656562Y-101583548D01*
X104657752Y-101588611D01*
X104638163Y-101603366D01*
X104595793Y-101630812D01*
X104579871Y-101640714D01*
X104444651Y-101705890D01*
X104296035Y-101746922D01*
X104138701Y-101762464D01*
X104098068Y-101763524D01*
X104051952Y-101766325D01*
X104025527Y-101770165D01*
X104023613Y-101774539D01*
X104048703Y-101781181D01*
X104101206Y-101790066D01*
X104167965Y-101798381D01*
X104240418Y-101805331D01*
X104310003Y-101810123D01*
X104368160Y-101811961D01*
X104406328Y-101810051D01*
X104418998Y-101808166D01*
X104450991Y-101805038D01*
X104463806Y-101806577D01*
X104452839Y-101813438D01*
X104421154Y-101827427D01*
X104376010Y-101845129D01*
X104334089Y-101862590D01*
X104304081Y-101878845D01*
X104295221Y-101889300D01*
X104297790Y-101892465D01*
X104326296Y-101907765D01*
X104377237Y-101922336D01*
X104444902Y-101935237D01*
X104523578Y-101945528D01*
X104607553Y-101952268D01*
X104691116Y-101954516D01*
X104692845Y-101954508D01*
X104835977Y-101947448D01*
X104963837Y-101925913D01*
X105087754Y-101887203D01*
X105219060Y-101828615D01*
X105336381Y-101769922D01*
X105292386Y-101816359D01*
X105253574Y-101853364D01*
X105185320Y-101906057D01*
X105096884Y-101962641D01*
X104984418Y-102025730D01*
X104852432Y-102096270D01*
X104976410Y-102087464D01*
X104996375Y-102085856D01*
X105106921Y-102071985D01*
X105230821Y-102049777D01*
X105356615Y-102021496D01*
X105472842Y-101989404D01*
X105519968Y-101976001D01*
X105559361Y-101967072D01*
X105579652Y-101965399D01*
X105581811Y-101967728D01*
X105575136Y-101986254D01*
X105552497Y-102018821D01*
X105517893Y-102060933D01*
X105475326Y-102108096D01*
X105428794Y-102155812D01*
X105382298Y-102199587D01*
X105339838Y-102234924D01*
X105219802Y-102313508D01*
X105069027Y-102381153D01*
X104906875Y-102422200D01*
X104731924Y-102437121D01*
X104693695Y-102437684D01*
X104646106Y-102439427D01*
X104622003Y-102442733D01*
X104617639Y-102448325D01*
X104629268Y-102456924D01*
X104638737Y-102461735D01*
X104681882Y-102479410D01*
X104742310Y-102500811D01*
X104811767Y-102523328D01*
X104881996Y-102544353D01*
X104944743Y-102561277D01*
X104991751Y-102571489D01*
X105014670Y-102575393D01*
X105039882Y-102581419D01*
X105040937Y-102587457D01*
X105021081Y-102596249D01*
X105020922Y-102596309D01*
X104978352Y-102605169D01*
X104915410Y-102609651D01*
X104840650Y-102609945D01*
X104762626Y-102606239D01*
X104689893Y-102598725D01*
X104631003Y-102587592D01*
X104523543Y-102554031D01*
X104415016Y-102506740D01*
X104305124Y-102443666D01*
X104185988Y-102360796D01*
X104182533Y-102358294D01*
X104172256Y-102354308D01*
X104181623Y-102370179D01*
X104209916Y-102404920D01*
X104256415Y-102457545D01*
X104261973Y-102463701D01*
X104306970Y-102514188D01*
X104342605Y-102555315D01*
X104365396Y-102582989D01*
X104371861Y-102593123D01*
X104358123Y-102590257D01*
X104320094Y-102574965D01*
X104268705Y-102549601D01*
X104210972Y-102517715D01*
X104153913Y-102482858D01*
X104082461Y-102432183D01*
X103953716Y-102314818D01*
X103842124Y-102176435D01*
X103750215Y-102020418D01*
X103680520Y-101850148D01*
X103677418Y-101841117D01*
X103659147Y-101800086D01*
X103640289Y-101772096D01*
X103624589Y-101760276D01*
X103615795Y-101767753D01*
X103617652Y-101797655D01*
X103626572Y-101833952D01*
X103656617Y-101919648D01*
X103698150Y-102010266D01*
X103746096Y-102094093D01*
X103767543Y-102127777D01*
X103785195Y-102159236D01*
X103784654Y-102169536D01*
X103764972Y-102160488D01*
X103725197Y-102133900D01*
X103683182Y-102104775D01*
X103693388Y-102139971D01*
X103728232Y-102232838D01*
X103794339Y-102352035D01*
X103879408Y-102464706D01*
X103977959Y-102563814D01*
X104084511Y-102642320D01*
X104105401Y-102655032D01*
X104141927Y-102678212D01*
X104156157Y-102690122D01*
X104150285Y-102693260D01*
X104126508Y-102690125D01*
X104110087Y-102686055D01*
X104064214Y-102669895D01*
X104005718Y-102645510D01*
X103943284Y-102616396D01*
X103904798Y-102597701D01*
X103855669Y-102574767D01*
X103821210Y-102559874D01*
X103807184Y-102555596D01*
X103806943Y-102556959D01*
X103817704Y-102573995D01*
X103844456Y-102605940D01*
X103883033Y-102648397D01*
X103929270Y-102696967D01*
X103978999Y-102747255D01*
X104028056Y-102794863D01*
X104072273Y-102835393D01*
X104172022Y-102923088D01*
X104104555Y-102927587D01*
X104067331Y-102927429D01*
X103984145Y-102914687D01*
X103892739Y-102887785D01*
X103802882Y-102849259D01*
X103771587Y-102831400D01*
X103703078Y-102782027D01*
X103634173Y-102721307D01*
X103573741Y-102657409D01*
X103530652Y-102598503D01*
X103516639Y-102575413D01*
X103496815Y-102545975D01*
X103486017Y-102534462D01*
X103483950Y-102536026D01*
X103484384Y-102557491D01*
X103493750Y-102600925D01*
X103511049Y-102662219D01*
X103535285Y-102737267D01*
X103539281Y-102749202D01*
X103554591Y-102798995D01*
X103563673Y-102835626D01*
X103564676Y-102851876D01*
X103558818Y-102851228D01*
X103540077Y-102832953D01*
X103513591Y-102798078D01*
X103483174Y-102752451D01*
X103452645Y-102701920D01*
X103425819Y-102652332D01*
X103406514Y-102609536D01*
X103398975Y-102587728D01*
X103378173Y-102494202D01*
X103365849Y-102373146D01*
X103356589Y-102219162D01*
X103328775Y-102336483D01*
X103323795Y-102356690D01*
X103308415Y-102407055D01*
X103295808Y-102428302D01*
X103286208Y-102420512D01*
X103279848Y-102383767D01*
X103276962Y-102318152D01*
X103275855Y-102288392D01*
X103272111Y-102254396D01*
X103266868Y-102241160D01*
X103261703Y-102243282D01*
X103238861Y-102259363D01*
X103206668Y-102286059D01*
X103206643Y-102286081D01*
X103173581Y-102311338D01*
X103150785Y-102322091D01*
X103142756Y-102317445D01*
X103153995Y-102296508D01*
X103163229Y-102282809D01*
X103184494Y-102248121D01*
X103209884Y-102204497D01*
X103251543Y-102131171D01*
X103146388Y-102229928D01*
X103098173Y-102273126D01*
X103006583Y-102341425D01*
X102913760Y-102390259D01*
X102811145Y-102424596D01*
X102773236Y-102434056D01*
X102716529Y-102445460D01*
X102687051Y-102446444D01*
X102684868Y-102437061D01*
X102710046Y-102417359D01*
X102762652Y-102387391D01*
X102774769Y-102380913D01*
X102832019Y-102348596D01*
X102882559Y-102317583D01*
X102916636Y-102293798D01*
X102960631Y-102258372D01*
X102880443Y-102279096D01*
X102870071Y-102281626D01*
X102782834Y-102294801D01*
X102683985Y-102298835D01*
X102586683Y-102293717D01*
X102504082Y-102279434D01*
X102441856Y-102258344D01*
X102356598Y-102219390D01*
X102274197Y-102172519D01*
X102207618Y-102124505D01*
X102158532Y-102082661D01*
X102383600Y-102081746D01*
X102419951Y-102081445D01*
X102500668Y-102079708D01*
X102572017Y-102076769D01*
X102627344Y-102072947D01*
X102659996Y-102068558D01*
X102678027Y-102064105D01*
X102692694Y-102058463D01*
X102688053Y-102052468D01*
X102661060Y-102043855D01*
X102608668Y-102030356D01*
X102573153Y-102020182D01*
X102518872Y-102001768D01*
X102461580Y-101979998D01*
X102407424Y-101957461D01*
X102362550Y-101936741D01*
X102333105Y-101920425D01*
X102325236Y-101911100D01*
X102334947Y-101911102D01*
X102366238Y-101916938D01*
X102410708Y-101927865D01*
X102449184Y-101936934D01*
X102587522Y-101952248D01*
X102732249Y-101944425D01*
X102875546Y-101914315D01*
X103009595Y-101862768D01*
X103028541Y-101853107D01*
X103061523Y-101831420D01*
X103066283Y-101816144D01*
X103042527Y-101806359D01*
X102989961Y-101801145D01*
X102979495Y-101799795D01*
X102980656Y-101793810D01*
X103008601Y-101782876D01*
X103064307Y-101766539D01*
X103106452Y-101753849D01*
X103172614Y-101730464D01*
X103237575Y-101704144D01*
X103294646Y-101677835D01*
X103337135Y-101654484D01*
X103358352Y-101637038D01*
X103360567Y-101630970D01*
X103349236Y-101624784D01*
X103317949Y-101629837D01*
X103271298Y-101645097D01*
X103213871Y-101669532D01*
X103176739Y-101685721D01*
X103033889Y-101729845D01*
X102881425Y-101752027D01*
X102727880Y-101751486D01*
X102581785Y-101727438D01*
X102579783Y-101726917D01*
X102540655Y-101714211D01*
X102528316Y-101703200D01*
X102543401Y-101693457D01*
X102586546Y-101684557D01*
X102658385Y-101676073D01*
X102769984Y-101665200D01*
X102617473Y-101639190D01*
X102529150Y-101620336D01*
X104395369Y-101620336D01*
X104397519Y-101622091D01*
X104414923Y-101620336D01*
X104417217Y-101615925D01*
X104405146Y-101610559D01*
X104397382Y-101611618D01*
X104395369Y-101620336D01*
X102529150Y-101620336D01*
X102525548Y-101619567D01*
X102380674Y-101570415D01*
G37*
G36*
X107608874Y-95967532D02*
G01*
X107697467Y-95971818D01*
X107701365Y-96378775D01*
X107705263Y-96785733D01*
X107162190Y-96785733D01*
X107162190Y-96624416D01*
X107499488Y-96624416D01*
X107499488Y-96304228D01*
X107499567Y-96264751D01*
X107500376Y-96174184D01*
X107501951Y-96095403D01*
X107504152Y-96032796D01*
X107506843Y-95990747D01*
X107509885Y-95973642D01*
X107523916Y-95969452D01*
X107560198Y-95966854D01*
X107608874Y-95967532D01*
G37*
G36*
X102436353Y-95967482D02*
G01*
X102535342Y-95971818D01*
X102542675Y-96206460D01*
X102545364Y-96283648D01*
X102549470Y-96359029D01*
X102555565Y-96414344D01*
X102564945Y-96454767D01*
X102578904Y-96485471D01*
X102598737Y-96511630D01*
X102625737Y-96538418D01*
X102672343Y-96576882D01*
X102729204Y-96607112D01*
X102794243Y-96621122D01*
X102877206Y-96622158D01*
X102914889Y-96620566D01*
X102956491Y-96620364D01*
X102979649Y-96624651D01*
X102991077Y-96635191D01*
X102997484Y-96653746D01*
X102999092Y-96659810D01*
X103013176Y-96714126D01*
X103019208Y-96747153D01*
X103016326Y-96765473D01*
X103003666Y-96775670D01*
X102980366Y-96784324D01*
X102957188Y-96790992D01*
X102877987Y-96799637D01*
X102793764Y-96792376D01*
X102718656Y-96769983D01*
X102684081Y-96750884D01*
X102631366Y-96713696D01*
X102583004Y-96671867D01*
X102513345Y-96603521D01*
X102513144Y-96661630D01*
X102512435Y-96700964D01*
X102506870Y-96746618D01*
X102491965Y-96772156D01*
X102463264Y-96783290D01*
X102416311Y-96785733D01*
X102337363Y-96785733D01*
X102337363Y-95963145D01*
X102436353Y-95967482D01*
G37*
G36*
X105174345Y-96234812D02*
G01*
X105206992Y-96153037D01*
X105225174Y-96124307D01*
X105285772Y-96056245D01*
X105359689Y-96000728D01*
X105437053Y-95965791D01*
X105504510Y-95953734D01*
X105598085Y-95954201D01*
X105689349Y-95971397D01*
X105766198Y-96004208D01*
X105844387Y-96064322D01*
X105904463Y-96143436D01*
X105944491Y-96238014D01*
X105962536Y-96344525D01*
X105956661Y-96459434D01*
X105935644Y-96542001D01*
X105887977Y-96634673D01*
X105820084Y-96708862D01*
X105735018Y-96762180D01*
X105635832Y-96792237D01*
X105525581Y-96796646D01*
X105448799Y-96783219D01*
X105352229Y-96742982D01*
X105270310Y-96680541D01*
X105207012Y-96599152D01*
X105166307Y-96502070D01*
X105154407Y-96427825D01*
X105155454Y-96375109D01*
X105354066Y-96375109D01*
X105359640Y-96449721D01*
X105383411Y-96530375D01*
X105424851Y-96589754D01*
X105482865Y-96626429D01*
X105556358Y-96638972D01*
X105615734Y-96631943D01*
X105678586Y-96601813D01*
X105724091Y-96548540D01*
X105751756Y-96472760D01*
X105761088Y-96375109D01*
X105757529Y-96303991D01*
X105741377Y-96232837D01*
X105710232Y-96179813D01*
X105661969Y-96139873D01*
X105652324Y-96134448D01*
X105586453Y-96114402D01*
X105515741Y-96115829D01*
X105452529Y-96138790D01*
X105437851Y-96148858D01*
X105391629Y-96202612D01*
X105363538Y-96278420D01*
X105354066Y-96375109D01*
X105155454Y-96375109D01*
X105156340Y-96330500D01*
X105174345Y-96234812D01*
G37*
G36*
X107643966Y-96939458D02*
G01*
X107690511Y-96969448D01*
X107709417Y-96994338D01*
X107726510Y-97045917D01*
X107719784Y-97096393D01*
X107692170Y-97139814D01*
X107646596Y-97170230D01*
X107585994Y-97181691D01*
X107554663Y-97178396D01*
X107504122Y-97155642D01*
X107469650Y-97116752D01*
X107454131Y-97068238D01*
X107460449Y-97016611D01*
X107491489Y-96968380D01*
X107530879Y-96942238D01*
X107587264Y-96930370D01*
X107643966Y-96939458D01*
G37*
G36*
X97971569Y-95956226D02*
G01*
X98052484Y-95972386D01*
X98082902Y-95981768D01*
X98115723Y-95993023D01*
X98128472Y-95999104D01*
X98127092Y-96004563D01*
X98118750Y-96031013D01*
X98105363Y-96071076D01*
X98096042Y-96097408D01*
X98082992Y-96123809D01*
X98068329Y-96131110D01*
X98045748Y-96125017D01*
X98011026Y-96115022D01*
X97945849Y-96110160D01*
X97886022Y-96121235D01*
X97841835Y-96147133D01*
X97805839Y-96183129D01*
X97805839Y-97137696D01*
X97336555Y-97137696D01*
X97336555Y-96976379D01*
X97598110Y-96976379D01*
X97603319Y-96569422D01*
X97603834Y-96530236D01*
X97605815Y-96407879D01*
X97608494Y-96310266D01*
X97612496Y-96233813D01*
X97618445Y-96174936D01*
X97626965Y-96130053D01*
X97638680Y-96095579D01*
X97654215Y-96067932D01*
X97674194Y-96043527D01*
X97699240Y-96018783D01*
X97705240Y-96013373D01*
X97746278Y-95983788D01*
X97785371Y-95965049D01*
X97807641Y-95959557D01*
X97885446Y-95951825D01*
X97971569Y-95956226D01*
G37*
G36*
X108684593Y-95966290D02*
G01*
X108779538Y-95998965D01*
X108832937Y-96026470D01*
X108868530Y-96050865D01*
X108882425Y-96073989D01*
X108877489Y-96100977D01*
X108856589Y-96136965D01*
X108818678Y-96194253D01*
X108736289Y-96152695D01*
X108656849Y-96122832D01*
X108570570Y-96112835D01*
X108491260Y-96125878D01*
X108422781Y-96159956D01*
X108368999Y-96213062D01*
X108333776Y-96283191D01*
X108320976Y-96368335D01*
X108328993Y-96440165D01*
X108359842Y-96516751D01*
X108410005Y-96576863D01*
X108475381Y-96618086D01*
X108551871Y-96638007D01*
X108635373Y-96634212D01*
X108721788Y-96604288D01*
X108790515Y-96569494D01*
X108835289Y-96626025D01*
X108849959Y-96646171D01*
X108867781Y-96678445D01*
X108870666Y-96697761D01*
X108859554Y-96707934D01*
X108828055Y-96728764D01*
X108785315Y-96752880D01*
X108773620Y-96758918D01*
X108733640Y-96776612D01*
X108694243Y-96786901D01*
X108645473Y-96791701D01*
X108577375Y-96792930D01*
X108571900Y-96792931D01*
X108503504Y-96791435D01*
X108453170Y-96785809D01*
X108410409Y-96774163D01*
X108364730Y-96754604D01*
X108305028Y-96722081D01*
X108223295Y-96656620D01*
X108166648Y-96577161D01*
X108133763Y-96481586D01*
X108123320Y-96367776D01*
X108124869Y-96305124D01*
X108130978Y-96257772D01*
X108144225Y-96216910D01*
X108167193Y-96170947D01*
X108220474Y-96093533D01*
X108298508Y-96025092D01*
X108397066Y-95976720D01*
X108472787Y-95958073D01*
X108578528Y-95952437D01*
X108684593Y-95966290D01*
G37*
G36*
X96853410Y-95958719D02*
G01*
X96908271Y-95966450D01*
X96953773Y-95980306D01*
X97001019Y-96002865D01*
X97064118Y-96047281D01*
X97111982Y-96107139D01*
X97135822Y-96173119D01*
X97135734Y-96240497D01*
X97111815Y-96304551D01*
X97064160Y-96360558D01*
X96992865Y-96403796D01*
X96978865Y-96409286D01*
X96928764Y-96425999D01*
X96864687Y-96444794D01*
X96797033Y-96462552D01*
X96721967Y-96482764D01*
X96661358Y-96504707D01*
X96624205Y-96527395D01*
X96607459Y-96552768D01*
X96608068Y-96582765D01*
X96629249Y-96619144D01*
X96673171Y-96643675D01*
X96735677Y-96653012D01*
X96813363Y-96647099D01*
X96902822Y-96625879D01*
X97000651Y-96589295D01*
X97008481Y-96587404D01*
X97033239Y-96597915D01*
X97065450Y-96633314D01*
X97106857Y-96687602D01*
X97073289Y-96714784D01*
X97073242Y-96714822D01*
X97042312Y-96732761D01*
X96993578Y-96753657D01*
X96937570Y-96772993D01*
X96887436Y-96786061D01*
X96783581Y-96799773D01*
X96685595Y-96795826D01*
X96597161Y-96775698D01*
X96521965Y-96740862D01*
X96463692Y-96692793D01*
X96426026Y-96632967D01*
X96412652Y-96562859D01*
X96415522Y-96523327D01*
X96433899Y-96466832D01*
X96471463Y-96419452D01*
X96530745Y-96379148D01*
X96614279Y-96343879D01*
X96724595Y-96311607D01*
X96801705Y-96290642D01*
X96867473Y-96267955D01*
X96910320Y-96245454D01*
X96933583Y-96221319D01*
X96940596Y-96193730D01*
X96940261Y-96184695D01*
X96927751Y-96147242D01*
X96895213Y-96122242D01*
X96839965Y-96108372D01*
X96759324Y-96104307D01*
X96700134Y-96105799D01*
X96646998Y-96112229D01*
X96598314Y-96126442D01*
X96540741Y-96151306D01*
X96441521Y-96197802D01*
X96403700Y-96140651D01*
X96392462Y-96122364D01*
X96376760Y-96089061D01*
X96374413Y-96069691D01*
X96388442Y-96057391D01*
X96425581Y-96036427D01*
X96477184Y-96012806D01*
X96535643Y-95989949D01*
X96593352Y-95971275D01*
X96607404Y-95967677D01*
X96691779Y-95956067D01*
X96795707Y-95955230D01*
X96853410Y-95958719D01*
G37*
G36*
X103205129Y-96283688D02*
G01*
X103236914Y-96180283D01*
X103290818Y-96091878D01*
X103364762Y-96021694D01*
X103456667Y-95972948D01*
X103476234Y-95966787D01*
X103551259Y-95955266D01*
X103635539Y-95955798D01*
X103716809Y-95967727D01*
X103782803Y-95990397D01*
X103783678Y-95990847D01*
X103869872Y-96050936D01*
X103936846Y-96129855D01*
X103982948Y-96222978D01*
X104006528Y-96325679D01*
X104005933Y-96433333D01*
X103979512Y-96541313D01*
X103940117Y-96619305D01*
X103875450Y-96694893D01*
X103795722Y-96750834D01*
X103705485Y-96786033D01*
X103609290Y-96799395D01*
X103511688Y-96789824D01*
X103417230Y-96756225D01*
X103330468Y-96697503D01*
X103298449Y-96666278D01*
X103241335Y-96584664D01*
X103207908Y-96488533D01*
X103198764Y-96393273D01*
X103395047Y-96393273D01*
X103406419Y-96472510D01*
X103434313Y-96543989D01*
X103479023Y-96600891D01*
X103479155Y-96601007D01*
X103523810Y-96624526D01*
X103583479Y-96635765D01*
X103646183Y-96633808D01*
X103699944Y-96617744D01*
X103734966Y-96591502D01*
X103771872Y-96537323D01*
X103795019Y-96468543D01*
X103804366Y-96391758D01*
X103799872Y-96313563D01*
X103781496Y-96240554D01*
X103749197Y-96179328D01*
X103702935Y-96136480D01*
X103697781Y-96133575D01*
X103633573Y-96113947D01*
X103563293Y-96116447D01*
X103498722Y-96140825D01*
X103457154Y-96177203D01*
X103420707Y-96238800D01*
X103399907Y-96313096D01*
X103395047Y-96393273D01*
X103198764Y-96393273D01*
X103197021Y-96375109D01*
X103205129Y-96283688D01*
G37*
G36*
X109550284Y-95958144D02*
G01*
X109631742Y-95968785D01*
X109695404Y-95986276D01*
X109733486Y-96004974D01*
X109797237Y-96056571D01*
X109839039Y-96121850D01*
X109856433Y-96196129D01*
X109846959Y-96274727D01*
X109828734Y-96313059D01*
X109778432Y-96364314D01*
X109701686Y-96407315D01*
X109599738Y-96441222D01*
X109599653Y-96441244D01*
X109509172Y-96464475D01*
X109442953Y-96482246D01*
X109396799Y-96496182D01*
X109366514Y-96507907D01*
X109347902Y-96519045D01*
X109336767Y-96531221D01*
X109328912Y-96546059D01*
X109320121Y-96573059D01*
X109327257Y-96594107D01*
X109354357Y-96620572D01*
X109378043Y-96638811D01*
X109404095Y-96649872D01*
X109439200Y-96653013D01*
X109493385Y-96650383D01*
X109536696Y-96645158D01*
X109605472Y-96630396D01*
X109662830Y-96611025D01*
X109735920Y-96578561D01*
X109776249Y-96626599D01*
X109785789Y-96638448D01*
X109807789Y-96670635D01*
X109816578Y-96691716D01*
X109807575Y-96704289D01*
X109775962Y-96724198D01*
X109727684Y-96746472D01*
X109669130Y-96768225D01*
X109606693Y-96786568D01*
X109603236Y-96787417D01*
X109519066Y-96798487D01*
X109426589Y-96795964D01*
X109337735Y-96780964D01*
X109264432Y-96754600D01*
X109220946Y-96729279D01*
X109170406Y-96683870D01*
X109142939Y-96628845D01*
X109134649Y-96558311D01*
X109134697Y-96548994D01*
X109138352Y-96501164D01*
X109150997Y-96467590D01*
X109177074Y-96435409D01*
X109210886Y-96404434D01*
X109250535Y-96378517D01*
X109301456Y-96355461D01*
X109369520Y-96332613D01*
X109460598Y-96307321D01*
X109527168Y-96289063D01*
X109587197Y-96269562D01*
X109625858Y-96251744D01*
X109647297Y-96233609D01*
X109655661Y-96213154D01*
X109657266Y-96173452D01*
X109642363Y-96140848D01*
X109604404Y-96117721D01*
X109589015Y-96112011D01*
X109509288Y-96098469D01*
X109416623Y-96103728D01*
X109318044Y-96126886D01*
X109220578Y-96167040D01*
X109159856Y-96198087D01*
X109121589Y-96140261D01*
X109109499Y-96121612D01*
X109090722Y-96090579D01*
X109083321Y-96075035D01*
X109088973Y-96068120D01*
X109115774Y-96051371D01*
X109158177Y-96030010D01*
X109209001Y-96007362D01*
X109261062Y-95986748D01*
X109307178Y-95971490D01*
X109307339Y-95971444D01*
X109377263Y-95959061D01*
X109461851Y-95954765D01*
X109550284Y-95958144D01*
G37*
G36*
X109537787Y-97643752D02*
G01*
X109617477Y-97683704D01*
X109732731Y-97742122D01*
X109837999Y-97796235D01*
X109930560Y-97844603D01*
X110007693Y-97885782D01*
X110066676Y-97918333D01*
X110104788Y-97940812D01*
X110119307Y-97951779D01*
X110120029Y-97959250D01*
X110119404Y-97992767D01*
X110116651Y-98048237D01*
X110112130Y-98121023D01*
X110106204Y-98206488D01*
X110099231Y-98299994D01*
X110091574Y-98396903D01*
X110083593Y-98492577D01*
X110075648Y-98582379D01*
X110068101Y-98661672D01*
X110061312Y-98725816D01*
X110055642Y-98770175D01*
X110054281Y-98778135D01*
X110042837Y-98818662D01*
X110028345Y-98844965D01*
X110019715Y-98850807D01*
X110003464Y-98856770D01*
X109977460Y-98862852D01*
X109939269Y-98869361D01*
X109886458Y-98876604D01*
X109816596Y-98884887D01*
X109727248Y-98894518D01*
X109615982Y-98905802D01*
X109480365Y-98919048D01*
X109317963Y-98934562D01*
X109314653Y-98934876D01*
X109206835Y-98945186D01*
X109106748Y-98954909D01*
X109018686Y-98963613D01*
X108946944Y-98970872D01*
X108895816Y-98976256D01*
X108869596Y-98979336D01*
X108824519Y-98985861D01*
X108740706Y-99324854D01*
X108725056Y-99388728D01*
X108703719Y-99477923D01*
X108685978Y-99554670D01*
X108672731Y-99614972D01*
X108664871Y-99654831D01*
X108663297Y-99670250D01*
X108664963Y-99671533D01*
X108685227Y-99685825D01*
X108726264Y-99714286D01*
X108785459Y-99755116D01*
X108860194Y-99806515D01*
X108947854Y-99866684D01*
X109045822Y-99933822D01*
X109151482Y-100006128D01*
X109183427Y-100028014D01*
X109287610Y-100099958D01*
X109383517Y-100167035D01*
X109468478Y-100227321D01*
X109539821Y-100278891D01*
X109594873Y-100319819D01*
X109630963Y-100348180D01*
X109645420Y-100362050D01*
X109646437Y-100366736D01*
X109643031Y-100388850D01*
X109630413Y-100427255D01*
X109607767Y-100483922D01*
X109574280Y-100560823D01*
X109529138Y-100659931D01*
X109471527Y-100783217D01*
X109457729Y-100812395D01*
X109410234Y-100911416D01*
X109365994Y-101001549D01*
X109326820Y-101079245D01*
X109294519Y-101140957D01*
X109270902Y-101183139D01*
X109257779Y-101202243D01*
X109234568Y-101216208D01*
X109204362Y-101220598D01*
X109203380Y-101220368D01*
X109180353Y-101214822D01*
X109132542Y-101203221D01*
X109063238Y-101186369D01*
X108975734Y-101165066D01*
X108873322Y-101140113D01*
X108759294Y-101112312D01*
X108636942Y-101082465D01*
X108617729Y-101077785D01*
X108497414Y-101048877D01*
X108386571Y-101022909D01*
X108288365Y-101000574D01*
X108205960Y-100982568D01*
X108142519Y-100969583D01*
X108101207Y-100962314D01*
X108085187Y-100961454D01*
X108084277Y-100962599D01*
X108070842Y-100982182D01*
X108044647Y-101021812D01*
X108008242Y-101077583D01*
X107964180Y-101145592D01*
X107915010Y-101221934D01*
X107908056Y-101232759D01*
X107858030Y-101310572D01*
X107812395Y-101381446D01*
X107774013Y-101440944D01*
X107745745Y-101484628D01*
X107730453Y-101508063D01*
X107724734Y-101517414D01*
X107721564Y-101527414D01*
X107722548Y-101540180D01*
X107729165Y-101558024D01*
X107742893Y-101583257D01*
X107765211Y-101618191D01*
X107797596Y-101665136D01*
X107841527Y-101726405D01*
X107898481Y-101804308D01*
X107969937Y-101901157D01*
X108057374Y-102019263D01*
X108083889Y-102055147D01*
X108158869Y-102157567D01*
X108227435Y-102252605D01*
X108287721Y-102337583D01*
X108337860Y-102409822D01*
X108375985Y-102466644D01*
X108400229Y-102505370D01*
X108408726Y-102523323D01*
X108405828Y-102531426D01*
X108384623Y-102561670D01*
X108343712Y-102610342D01*
X108284125Y-102676287D01*
X108206892Y-102758347D01*
X108113043Y-102855368D01*
X108025644Y-102944710D01*
X107949434Y-103022437D01*
X107889475Y-103083208D01*
X107843567Y-103129110D01*
X107809511Y-103162229D01*
X107785106Y-103184649D01*
X107768154Y-103198456D01*
X107756454Y-103205737D01*
X107747807Y-103208575D01*
X107740013Y-103209058D01*
X107738316Y-103208747D01*
X107716260Y-103197896D01*
X107674814Y-103173377D01*
X107617964Y-103137682D01*
X107549697Y-103093305D01*
X107473999Y-103042736D01*
X107328325Y-102944709D01*
X107185617Y-102849944D01*
X107061291Y-102768831D01*
X106956260Y-102701940D01*
X106871434Y-102649841D01*
X106807724Y-102613105D01*
X106766041Y-102592301D01*
X106747297Y-102587999D01*
X106742824Y-102591020D01*
X106717539Y-102609844D01*
X106675733Y-102641961D01*
X106621997Y-102683828D01*
X106560920Y-102731902D01*
X106549953Y-102740566D01*
X106487863Y-102789328D01*
X106422391Y-102840345D01*
X106357947Y-102890225D01*
X106298940Y-102935575D01*
X106249783Y-102973003D01*
X106214884Y-102999118D01*
X106198656Y-103010526D01*
X106199875Y-103016719D01*
X106208371Y-103046231D01*
X106223594Y-103095830D01*
X106244097Y-103160822D01*
X106268430Y-103236513D01*
X106293380Y-103314152D01*
X106335097Y-103446939D01*
X106374858Y-103577052D01*
X106411779Y-103701336D01*
X106444976Y-103816639D01*
X106473563Y-103919805D01*
X106496657Y-104007682D01*
X106513372Y-104077115D01*
X106522823Y-104124951D01*
X106524127Y-104148036D01*
X106521159Y-104152135D01*
X106496725Y-104170495D01*
X106451208Y-104198516D01*
X106388510Y-104234219D01*
X106312531Y-104275628D01*
X106227173Y-104320764D01*
X106136338Y-104367648D01*
X106043926Y-104414303D01*
X105953838Y-104458752D01*
X105869977Y-104499015D01*
X105796242Y-104533114D01*
X105736537Y-104559073D01*
X105694761Y-104574912D01*
X105674816Y-104578654D01*
X105672175Y-104576982D01*
X105652540Y-104557234D01*
X105619107Y-104518654D01*
X105574853Y-104464842D01*
X105522756Y-104399398D01*
X105465791Y-104325919D01*
X105409730Y-104252774D01*
X105334349Y-104154620D01*
X105257578Y-104054840D01*
X105185813Y-103961748D01*
X105125451Y-103883654D01*
X105085089Y-103831524D01*
X105039636Y-103772775D01*
X105003201Y-103725635D01*
X104978768Y-103693961D01*
X104969318Y-103681613D01*
X104955677Y-103685076D01*
X104918132Y-103696994D01*
X104860499Y-103716079D01*
X104786587Y-103741031D01*
X104700205Y-103770546D01*
X104605162Y-103803325D01*
X104505267Y-103838064D01*
X104404329Y-103873463D01*
X104306156Y-103908220D01*
X104243830Y-103930407D01*
X104243830Y-104499172D01*
X104243815Y-104545549D01*
X104243516Y-104687532D01*
X104242771Y-104803321D01*
X104241500Y-104895345D01*
X104239621Y-104966035D01*
X104237055Y-105017820D01*
X104233720Y-105053130D01*
X104229535Y-105074396D01*
X104224421Y-105084046D01*
X104223304Y-105084728D01*
X104200274Y-105090920D01*
X104152911Y-105099750D01*
X104085384Y-105110648D01*
X104001864Y-105123043D01*
X103906520Y-105136365D01*
X103803523Y-105150046D01*
X103697043Y-105163513D01*
X103591250Y-105176199D01*
X103490313Y-105187533D01*
X103398402Y-105196944D01*
X103374487Y-105199178D01*
X103328652Y-105202110D01*
X103301324Y-105199600D01*
X103284805Y-105190151D01*
X103271399Y-105172268D01*
X103267411Y-105164917D01*
X103251734Y-105129129D01*
X103228641Y-105070937D01*
X103199516Y-104994154D01*
X103165741Y-104902594D01*
X103128701Y-104800070D01*
X103089778Y-104690396D01*
X103050355Y-104577385D01*
X103011815Y-104464850D01*
X102975542Y-104356604D01*
X102906411Y-104147626D01*
X102537562Y-104147745D01*
X102168714Y-104147864D01*
X102082866Y-104386054D01*
X102062422Y-104442981D01*
X102023598Y-104551822D01*
X101981414Y-104670802D01*
X101939734Y-104789012D01*
X101902420Y-104895548D01*
X101899688Y-104903367D01*
X101869414Y-104987931D01*
X101841150Y-105063350D01*
X101816736Y-105124963D01*
X101798014Y-105168107D01*
X101786826Y-105188122D01*
X101778557Y-105194901D01*
X101761651Y-105200720D01*
X101734049Y-105201172D01*
X101689722Y-105196163D01*
X101622643Y-105185602D01*
X101548713Y-105173249D01*
X101374044Y-105143413D01*
X101222195Y-105116479D01*
X101094202Y-105092649D01*
X100991101Y-105072127D01*
X100913929Y-105055116D01*
X100863723Y-105041819D01*
X100841520Y-105032440D01*
X100836712Y-105025480D01*
X100831695Y-105009669D01*
X100827508Y-104983312D01*
X100824014Y-104943725D01*
X100821078Y-104888226D01*
X100818563Y-104814131D01*
X100816334Y-104718755D01*
X100814255Y-104599417D01*
X100812190Y-104453433D01*
X100804857Y-103895013D01*
X100460933Y-103772976D01*
X100370133Y-103740876D01*
X100283652Y-103710809D01*
X100218639Y-103689148D01*
X100171776Y-103674999D01*
X100139740Y-103667467D01*
X100119210Y-103665660D01*
X100106866Y-103668682D01*
X100099387Y-103675639D01*
X100092761Y-103684829D01*
X100057815Y-103731646D01*
X100010878Y-103792726D01*
X99954459Y-103864957D01*
X99891067Y-103945231D01*
X99823214Y-104030436D01*
X99753408Y-104117464D01*
X99684159Y-104203203D01*
X99617977Y-104284544D01*
X99557372Y-104358377D01*
X99504853Y-104421590D01*
X99462931Y-104471075D01*
X99434115Y-104503721D01*
X99420914Y-104516417D01*
X99408563Y-104514794D01*
X99372624Y-104500774D01*
X99318177Y-104475005D01*
X99248925Y-104439607D01*
X99168573Y-104396699D01*
X99080825Y-104348399D01*
X98989385Y-104296828D01*
X98897958Y-104244104D01*
X98810249Y-104192347D01*
X98729961Y-104143675D01*
X98660799Y-104100209D01*
X98606467Y-104064068D01*
X98570670Y-104037371D01*
X98557112Y-104022236D01*
X98557070Y-104021704D01*
X98561399Y-103999907D01*
X98574227Y-103953878D01*
X98594527Y-103886874D01*
X98621272Y-103802152D01*
X98653436Y-103702969D01*
X98689990Y-103592581D01*
X98729909Y-103474246D01*
X98733949Y-103462367D01*
X98773196Y-103345709D01*
X98808658Y-103238116D01*
X98839363Y-103142697D01*
X98864340Y-103062558D01*
X98882621Y-103000809D01*
X98893233Y-102960556D01*
X98895207Y-102944907D01*
X98894230Y-102944066D01*
X98869618Y-102923801D01*
X98827079Y-102889576D01*
X98771440Y-102845208D01*
X98707531Y-102794510D01*
X98640179Y-102741299D01*
X98574213Y-102689389D01*
X98514460Y-102642596D01*
X98465750Y-102604734D01*
X98432911Y-102579619D01*
X98348724Y-102516482D01*
X97892606Y-102805838D01*
X97891173Y-102806748D01*
X97786478Y-102872895D01*
X97688861Y-102934068D01*
X97601260Y-102988462D01*
X97526615Y-103034273D01*
X97467865Y-103069698D01*
X97427948Y-103092933D01*
X97409804Y-103102173D01*
X97406215Y-103102775D01*
X97393780Y-103100561D01*
X97376847Y-103091015D01*
X97353592Y-103072274D01*
X97322187Y-103042471D01*
X97280806Y-102999741D01*
X97227622Y-102942220D01*
X97160809Y-102868043D01*
X97078541Y-102775344D01*
X96978991Y-102662259D01*
X96959085Y-102639502D01*
X96888996Y-102557772D01*
X96831088Y-102487603D01*
X96787311Y-102431474D01*
X96759615Y-102391862D01*
X96749950Y-102371245D01*
X96755634Y-102356071D01*
X96777121Y-102320090D01*
X96811776Y-102269298D01*
X96856586Y-102208074D01*
X96908540Y-102140793D01*
X96950765Y-102087131D01*
X97022225Y-101995309D01*
X97099596Y-101894952D01*
X97176032Y-101794952D01*
X97244684Y-101704205D01*
X97422239Y-101467884D01*
X97232480Y-101183593D01*
X97162392Y-101080082D01*
X97105952Y-101000124D01*
X97063317Y-100944052D01*
X97033952Y-100911162D01*
X97017323Y-100900752D01*
X97004579Y-100902880D01*
X96965265Y-100910923D01*
X96903537Y-100924213D01*
X96822891Y-100941978D01*
X96726827Y-100963448D01*
X96618843Y-100987848D01*
X96502436Y-101014407D01*
X96415141Y-101034271D01*
X96303296Y-101059279D01*
X96201842Y-101081466D01*
X96114413Y-101100062D01*
X96044644Y-101114298D01*
X95996168Y-101123404D01*
X95972620Y-101126610D01*
X95942297Y-101121982D01*
X95917996Y-101108279D01*
X95909543Y-101091634D01*
X95891682Y-101051503D01*
X95866260Y-100992200D01*
X95834967Y-100917851D01*
X95799489Y-100832582D01*
X95761516Y-100740518D01*
X95722737Y-100645785D01*
X95684839Y-100552509D01*
X95649512Y-100464814D01*
X95618443Y-100386827D01*
X95593322Y-100322672D01*
X95575837Y-100276476D01*
X95567677Y-100252363D01*
X95568625Y-100219547D01*
X95593872Y-100186830D01*
X95610655Y-100174039D01*
X95650185Y-100146429D01*
X95707455Y-100107634D01*
X95778673Y-100060129D01*
X95860048Y-100006389D01*
X95947788Y-99948888D01*
X96038101Y-99890102D01*
X96127196Y-99832505D01*
X96211281Y-99778574D01*
X96286565Y-99730782D01*
X96349255Y-99691605D01*
X96395561Y-99663518D01*
X96488458Y-99608770D01*
X96479475Y-99552292D01*
X96478734Y-99547754D01*
X96469878Y-99500809D01*
X96456440Y-99437038D01*
X96439634Y-99361494D01*
X96420670Y-99279228D01*
X96400763Y-99195291D01*
X96381123Y-99114735D01*
X96362963Y-99042611D01*
X96347497Y-98983972D01*
X96335935Y-98943869D01*
X96329491Y-98927354D01*
X96322137Y-98925191D01*
X96288768Y-98919689D01*
X96231934Y-98912069D01*
X96155174Y-98902755D01*
X96062025Y-98892171D01*
X95956025Y-98880738D01*
X95840712Y-98868881D01*
X95811509Y-98865946D01*
X95665661Y-98851183D01*
X95545895Y-98838783D01*
X95449571Y-98828373D01*
X95374051Y-98819581D01*
X95316694Y-98812036D01*
X95274862Y-98805366D01*
X95245914Y-98799198D01*
X95227212Y-98793160D01*
X95216116Y-98786881D01*
X95209987Y-98779989D01*
X95206374Y-98772371D01*
X95201434Y-98754563D01*
X95196415Y-98725799D01*
X95190984Y-98683031D01*
X95184803Y-98623207D01*
X95177539Y-98543279D01*
X95168855Y-98440195D01*
X95158416Y-98310906D01*
X95152548Y-98237434D01*
X95144892Y-98142005D01*
X95137757Y-98053527D01*
X95131743Y-97979430D01*
X95127449Y-97927142D01*
X95118104Y-97814683D01*
X95219101Y-97764133D01*
X95221779Y-97762797D01*
X95296433Y-97727937D01*
X95392055Y-97686728D01*
X95503324Y-97641170D01*
X95624919Y-97593259D01*
X95751519Y-97544995D01*
X95877801Y-97498374D01*
X95998445Y-97455396D01*
X96108130Y-97418058D01*
X96201533Y-97388358D01*
X96273333Y-97368295D01*
X96281708Y-97367179D01*
X96317775Y-97365079D01*
X96376216Y-97363145D01*
X96452449Y-97361488D01*
X96541891Y-97360217D01*
X96639961Y-97359443D01*
X96977259Y-97357812D01*
X96979802Y-97684041D01*
X96980217Y-97723615D01*
X96995116Y-98091805D01*
X97030514Y-98444950D01*
X97087432Y-98789371D01*
X97166894Y-99131388D01*
X97269921Y-99477321D01*
X97346830Y-99696314D01*
X97503349Y-100073577D01*
X97685474Y-100436689D01*
X97892841Y-100785055D01*
X98125081Y-101118079D01*
X98381828Y-101435167D01*
X98662715Y-101735724D01*
X98715733Y-101788048D01*
X98978107Y-102030210D01*
X99245175Y-102247993D01*
X99522557Y-102445458D01*
X99815874Y-102626662D01*
X100130749Y-102795665D01*
X100201418Y-102830527D01*
X100562595Y-102990726D01*
X100928477Y-103122869D01*
X101300945Y-103227424D01*
X101681881Y-103304861D01*
X102073166Y-103355648D01*
X102476682Y-103380254D01*
X102830808Y-103379096D01*
X103229977Y-103350737D01*
X103624557Y-103294040D01*
X104013072Y-103209447D01*
X104394045Y-103097398D01*
X104766001Y-102958335D01*
X105127463Y-102792698D01*
X105476954Y-102600930D01*
X105812998Y-102383471D01*
X106102097Y-102167407D01*
X106411111Y-101902741D01*
X106699124Y-101618565D01*
X106965401Y-101316098D01*
X107209207Y-100996559D01*
X107429805Y-100661169D01*
X107626461Y-100311147D01*
X107798439Y-99947711D01*
X107945004Y-99572083D01*
X108065420Y-99185480D01*
X108158951Y-98789123D01*
X108224863Y-98384231D01*
X108227619Y-98361602D01*
X108237768Y-98262860D01*
X108247241Y-98148098D01*
X108255706Y-98023772D01*
X108262829Y-97896338D01*
X108268278Y-97772253D01*
X108271720Y-97657974D01*
X108272821Y-97559958D01*
X108271250Y-97484661D01*
X108265045Y-97357673D01*
X108964688Y-97357673D01*
X109537787Y-97643752D01*
G37*
G36*
X98334362Y-96170223D02*
G01*
X98352428Y-96093551D01*
X98395995Y-96031221D01*
X98465329Y-95982817D01*
X98478850Y-95976474D01*
X98564387Y-95954276D01*
X98658339Y-95956087D01*
X98754628Y-95981176D01*
X98847171Y-96028810D01*
X98874207Y-96045029D01*
X98902462Y-96052295D01*
X98916557Y-96035466D01*
X98920388Y-95992616D01*
X98921115Y-95983790D01*
X98929930Y-95971469D01*
X98954286Y-95965832D01*
X99001047Y-95964485D01*
X99081705Y-95964485D01*
X99081623Y-96246789D01*
X99081049Y-96325329D01*
X99078893Y-96416483D01*
X99075377Y-96494107D01*
X99070751Y-96552936D01*
X99065270Y-96587705D01*
X99064387Y-96590750D01*
X99034792Y-96650080D01*
X98986405Y-96708019D01*
X98928165Y-96755626D01*
X98869012Y-96783963D01*
X98776669Y-96798897D01*
X98662070Y-96794755D01*
X98543713Y-96769330D01*
X98429107Y-96723652D01*
X98412436Y-96715180D01*
X98380314Y-96698280D01*
X98365107Y-96689378D01*
X98365922Y-96684060D01*
X98376533Y-96660518D01*
X98394393Y-96626908D01*
X98414374Y-96592680D01*
X98431349Y-96567282D01*
X98444598Y-96569415D01*
X98477429Y-96581253D01*
X98522293Y-96600279D01*
X98538397Y-96607187D01*
X98625874Y-96633855D01*
X98707430Y-96641320D01*
X98777625Y-96629610D01*
X98831019Y-96598752D01*
X98837601Y-96592325D01*
X98866707Y-96557236D01*
X98883250Y-96526426D01*
X98885664Y-96516377D01*
X98883010Y-96501056D01*
X98863954Y-96492217D01*
X98822070Y-96485569D01*
X98709438Y-96468816D01*
X98587609Y-96442061D01*
X98491722Y-96408697D01*
X98420087Y-96367694D01*
X98371013Y-96318023D01*
X98342809Y-96258657D01*
X98336243Y-96207669D01*
X98524430Y-96207669D01*
X98529294Y-96239369D01*
X98557385Y-96281860D01*
X98611208Y-96315096D01*
X98691601Y-96339530D01*
X98799401Y-96355611D01*
X98891058Y-96364685D01*
X98891058Y-96282905D01*
X98890578Y-96251148D01*
X98885905Y-96214834D01*
X98872943Y-96191319D01*
X98847711Y-96170259D01*
X98847078Y-96169810D01*
X98804656Y-96144457D01*
X98763387Y-96126478D01*
X98694641Y-96109719D01*
X98623182Y-96106426D01*
X98569657Y-96122107D01*
X98536071Y-96156082D01*
X98524430Y-96207669D01*
X98336243Y-96207669D01*
X98333783Y-96188566D01*
X98334362Y-96170223D01*
G37*
G36*
X106775891Y-95956062D02*
G01*
X106844055Y-95963997D01*
X106898673Y-95976519D01*
X106931973Y-95993207D01*
X106934779Y-95999862D01*
X106934578Y-96029215D01*
X106926923Y-96070879D01*
X106918700Y-96101959D01*
X106908121Y-96125523D01*
X106892249Y-96130973D01*
X106863934Y-96124381D01*
X106826231Y-96116929D01*
X106767601Y-96112129D01*
X106706194Y-96112279D01*
X106652592Y-96117268D01*
X106617374Y-96126982D01*
X106610843Y-96130809D01*
X106585281Y-96155509D01*
X106566907Y-96194377D01*
X106554856Y-96251143D01*
X106548260Y-96329540D01*
X106546254Y-96433299D01*
X106546254Y-96624416D01*
X106912883Y-96624416D01*
X106912883Y-96785733D01*
X106546254Y-96785733D01*
X106546254Y-97035040D01*
X106388776Y-97035040D01*
X106379686Y-96980046D01*
X106379507Y-96978955D01*
X106373091Y-96925438D01*
X106370210Y-96873723D01*
X106370153Y-96869959D01*
X106366468Y-96830819D01*
X106358950Y-96805303D01*
X106358273Y-96804435D01*
X106336888Y-96794630D01*
X106295315Y-96785082D01*
X106241854Y-96777745D01*
X106135631Y-96767278D01*
X106135631Y-96624416D01*
X106355608Y-96624416D01*
X106355690Y-96415438D01*
X106355771Y-96394908D01*
X106357421Y-96315068D01*
X106360866Y-96242821D01*
X106365678Y-96185410D01*
X106371426Y-96150081D01*
X106378401Y-96129607D01*
X106417280Y-96063972D01*
X106473758Y-96008224D01*
X106538922Y-95971850D01*
X106567848Y-95964006D01*
X106630015Y-95955644D01*
X106701954Y-95953137D01*
X106775891Y-95956062D01*
G37*
D11*
X81456000Y-105850000D02*
X81456000Y-97350000D01*
X82206000Y-107350000D02*
X82206000Y-109150000D01*
X81456000Y-107350000D02*
X82206000Y-107350000D01*
X82506000Y-109450000D02*
X81256000Y-109450000D01*
X82206000Y-94050000D02*
X82206000Y-95850000D01*
X81456000Y-94050000D02*
X82206000Y-94050000D01*
X81456000Y-109150000D02*
X81456000Y-107350000D01*
X79956000Y-94800000D02*
X77006000Y-94800000D01*
X76246000Y-109160000D02*
X76246000Y-94040000D01*
X82206000Y-95850000D02*
X81456000Y-95850000D01*
X79956000Y-94050000D02*
X79956000Y-94800000D01*
X76246000Y-94040000D02*
X82216000Y-94040000D01*
X82206000Y-109150000D02*
X81456000Y-109150000D01*
X79956000Y-109150000D02*
X79956000Y-108400000D01*
X77006000Y-94800000D02*
X77006000Y-101600000D01*
X77006000Y-108400000D02*
X77006000Y-101600000D01*
X81456000Y-95850000D02*
X81456000Y-94050000D01*
X82216000Y-109160000D02*
X76246000Y-109160000D01*
X79956000Y-108400000D02*
X77006000Y-108400000D01*
X82206000Y-105850000D02*
X81456000Y-105850000D01*
X81456000Y-97350000D02*
X82206000Y-97350000D01*
X82206000Y-97350000D02*
X82206000Y-105850000D01*
X82216000Y-94040000D02*
X82216000Y-109160000D01*
X82506000Y-108200000D02*
X82506000Y-109450000D01*
X90110000Y-93980000D02*
X90110000Y-95310000D01*
X125790000Y-92650000D02*
X125790000Y-95310000D01*
X92710000Y-92650000D02*
X92710000Y-95310000D01*
X92710000Y-95310000D02*
X125790000Y-95310000D01*
X92710000Y-92650000D02*
X125790000Y-92650000D01*
X90110000Y-95310000D02*
X91440000Y-95310000D01*
X92710000Y-107890000D02*
X125790000Y-107890000D01*
X90110000Y-110550000D02*
X91440000Y-110550000D01*
X92710000Y-110550000D02*
X125790000Y-110550000D01*
X90110000Y-109220000D02*
X90110000Y-110550000D01*
X125790000Y-107890000D02*
X125790000Y-110550000D01*
X92710000Y-107890000D02*
X92710000Y-110550000D01*
%LPC*%
D12*
X87700000Y-100600000D03*
D13*
X87700000Y-103100000D03*
D14*
X79756000Y-106600000D03*
D15*
X79756000Y-104100000D03*
X79756000Y-101600000D03*
X79756000Y-99100000D03*
X79756000Y-96600000D03*
D16*
X91440000Y-93980000D03*
D17*
X93980000Y-93980000D03*
X96520000Y-93980000D03*
X99060000Y-93980000D03*
X101600000Y-93980000D03*
X104140000Y-93980000D03*
X106680000Y-93980000D03*
X109220000Y-93980000D03*
X111760000Y-93980000D03*
X114300000Y-93980000D03*
X116840000Y-93980000D03*
X119380000Y-93980000D03*
X121920000Y-93980000D03*
X124460000Y-93980000D03*
D16*
X91440000Y-109220000D03*
D17*
X93980000Y-109220000D03*
X96520000Y-109220000D03*
X99060000Y-109220000D03*
X101600000Y-109220000D03*
X104140000Y-109220000D03*
X106680000Y-109220000D03*
X109220000Y-109220000D03*
X111760000Y-109220000D03*
X114300000Y-109220000D03*
X116840000Y-109220000D03*
X119380000Y-109220000D03*
X121920000Y-109220000D03*
X124460000Y-109220000D03*
M02*
