%TF.GenerationSoftware,KiCad,Pcbnew,(6.0.1)*%
%TF.CreationDate,2022-02-11T11:56:36-05:00*%
%TF.ProjectId,POVshield-V3,504f5673-6869-4656-9c64-2d56332e6b69,rev?*%
%TF.SameCoordinates,Original*%
%TF.FileFunction,Copper,L2,Bot*%
%TF.FilePolarity,Positive*%
%FSLAX46Y46*%
G04 Gerber Fmt 4.6, Leading zero omitted, Abs format (unit mm)*
G04 Created by KiCad (PCBNEW (6.0.1)) date 2022-02-11 11:56:36*
%MOMM*%
%LPD*%
G01*
G04 APERTURE LIST*
G04 Aperture macros list*
%AMRoundRect*
0 Rectangle with rounded corners*
0 $1 Rounding radius*
0 $2 $3 $4 $5 $6 $7 $8 $9 X,Y pos of 4 corners*
0 Add a 4 corners polygon primitive as box body*
4,1,4,$2,$3,$4,$5,$6,$7,$8,$9,$2,$3,0*
0 Add four circle primitives for the rounded corners*
1,1,$1+$1,$2,$3*
1,1,$1+$1,$4,$5*
1,1,$1+$1,$6,$7*
1,1,$1+$1,$8,$9*
0 Add four rect primitives between the rounded corners*
20,1,$1+$1,$2,$3,$4,$5,0*
20,1,$1+$1,$4,$5,$6,$7,0*
20,1,$1+$1,$6,$7,$8,$9,0*
20,1,$1+$1,$8,$9,$2,$3,0*%
G04 Aperture macros list end*
%TA.AperFunction,ComponentPad*%
%ADD10C,0.500000*%
%TD*%
%TA.AperFunction,SMDPad,CuDef*%
%ADD11R,3.099999X2.410000*%
%TD*%
%TA.AperFunction,ComponentPad*%
%ADD12R,1.600000X1.600000*%
%TD*%
%TA.AperFunction,ComponentPad*%
%ADD13C,1.600000*%
%TD*%
%TA.AperFunction,ComponentPad*%
%ADD14RoundRect,0.250000X0.725000X-0.600000X0.725000X0.600000X-0.725000X0.600000X-0.725000X-0.600000X0*%
%TD*%
%TA.AperFunction,ComponentPad*%
%ADD15O,1.950000X1.700000*%
%TD*%
%TA.AperFunction,ComponentPad*%
%ADD16R,1.700000X1.700000*%
%TD*%
%TA.AperFunction,ComponentPad*%
%ADD17O,1.700000X1.700000*%
%TD*%
%TA.AperFunction,ViaPad*%
%ADD18C,0.800000*%
%TD*%
%TA.AperFunction,Conductor*%
%ADD19C,0.609600*%
%TD*%
%TA.AperFunction,Conductor*%
%ADD20C,0.304800*%
%TD*%
G04 APERTURE END LIST*
D10*
X118661002Y-100137000D03*
X117361005Y-102047000D03*
X117361005Y-100137000D03*
X116061007Y-102047000D03*
X118661002Y-102047000D03*
X116061007Y-100137000D03*
D11*
X117361005Y-101092000D03*
D12*
X87700000Y-100600000D03*
D13*
X87700000Y-103100000D03*
D14*
X79756000Y-106600000D03*
D15*
X79756000Y-104100000D03*
X79756000Y-101600000D03*
X79756000Y-99100000D03*
X79756000Y-96600000D03*
D16*
X91440000Y-93980000D03*
D17*
X93980000Y-93980000D03*
X96520000Y-93980000D03*
X99060000Y-93980000D03*
X101600000Y-93980000D03*
X104140000Y-93980000D03*
X106680000Y-93980000D03*
X109220000Y-93980000D03*
X111760000Y-93980000D03*
X114300000Y-93980000D03*
X116840000Y-93980000D03*
X119380000Y-93980000D03*
X121920000Y-93980000D03*
X124460000Y-93980000D03*
D16*
X91440000Y-109220000D03*
D17*
X93980000Y-109220000D03*
X96520000Y-109220000D03*
X99060000Y-109220000D03*
X101600000Y-109220000D03*
X104140000Y-109220000D03*
X106680000Y-109220000D03*
X109220000Y-109220000D03*
X111760000Y-109220000D03*
X114300000Y-109220000D03*
X116840000Y-109220000D03*
X119380000Y-109220000D03*
X121920000Y-109220000D03*
X124460000Y-109220000D03*
D18*
X113030000Y-100584000D03*
X101600000Y-106426000D03*
X114300000Y-100076000D03*
X121920000Y-101092000D03*
X120650000Y-101092000D03*
X122936000Y-100076000D03*
X120650000Y-102108000D03*
X121920000Y-102108000D03*
X122936000Y-102108000D03*
X109728000Y-106680000D03*
X114300000Y-102108000D03*
X114300000Y-101092000D03*
X120650000Y-100076000D03*
X112014000Y-100584000D03*
X122936000Y-101092000D03*
X102108000Y-99568000D03*
X121920000Y-100076000D03*
X102616000Y-105156000D03*
X97028000Y-105156000D03*
X114808000Y-103632000D03*
X114046000Y-103632000D03*
D19*
X89408000Y-97282000D02*
X87700000Y-98990000D01*
X91694000Y-97282000D02*
X89408000Y-97282000D01*
X91694000Y-97282000D02*
X123063000Y-97282000D01*
X87700000Y-98990000D02*
X87700000Y-100600000D01*
X124460000Y-95885000D02*
X124460000Y-93980000D01*
X123063000Y-97282000D02*
X124460000Y-95885000D01*
D20*
X117866089Y-105166089D02*
X121920000Y-109220000D01*
X102626089Y-105166089D02*
X117866089Y-105166089D01*
X102616000Y-105156000D02*
X102626089Y-105166089D01*
X102616000Y-105156000D02*
X97028000Y-105156000D01*
D19*
X91948000Y-103632000D02*
X114808000Y-103632000D01*
X79659000Y-106426000D02*
X89154000Y-106426000D01*
X89154000Y-106426000D02*
X91948000Y-103632000D01*
%TA.AperFunction,Conductor*%
G36*
X125164121Y-91968002D02*
G01*
X125210614Y-92021658D01*
X125222000Y-92074000D01*
X125222000Y-92635337D01*
X125201998Y-92703458D01*
X125148342Y-92749951D01*
X125078068Y-92760055D01*
X125035107Y-92745646D01*
X125018789Y-92736638D01*
X125013920Y-92734914D01*
X125013916Y-92734912D01*
X124813087Y-92663795D01*
X124813083Y-92663794D01*
X124808212Y-92662069D01*
X124803119Y-92661162D01*
X124803116Y-92661161D01*
X124593373Y-92623800D01*
X124593367Y-92623799D01*
X124588284Y-92622894D01*
X124514452Y-92621992D01*
X124370081Y-92620228D01*
X124370079Y-92620228D01*
X124364911Y-92620165D01*
X124144091Y-92653955D01*
X123931756Y-92723357D01*
X123733607Y-92826507D01*
X123729474Y-92829610D01*
X123729471Y-92829612D01*
X123559100Y-92957530D01*
X123554965Y-92960635D01*
X123551393Y-92964373D01*
X123443729Y-93077037D01*
X123400629Y-93122138D01*
X123293204Y-93279618D01*
X123292898Y-93280066D01*
X123237987Y-93325069D01*
X123167462Y-93333240D01*
X123103715Y-93301986D01*
X123083018Y-93277502D01*
X123002426Y-93152926D01*
X122996136Y-93144757D01*
X122852806Y-92987240D01*
X122845273Y-92980215D01*
X122678139Y-92848222D01*
X122669552Y-92842517D01*
X122483117Y-92739599D01*
X122473705Y-92735369D01*
X122272959Y-92664280D01*
X122262988Y-92661646D01*
X122191837Y-92648972D01*
X122178540Y-92650432D01*
X122174000Y-92664989D01*
X122174000Y-95298517D01*
X122178064Y-95312359D01*
X122191478Y-95314393D01*
X122198184Y-95313534D01*
X122208262Y-95311392D01*
X122412255Y-95250191D01*
X122421842Y-95246433D01*
X122613095Y-95152739D01*
X122621945Y-95147464D01*
X122795328Y-95023792D01*
X122803200Y-95017139D01*
X122954052Y-94866812D01*
X122960730Y-94858965D01*
X123088022Y-94681819D01*
X123089279Y-94682722D01*
X123136373Y-94639362D01*
X123206311Y-94627145D01*
X123271751Y-94654678D01*
X123299579Y-94686511D01*
X123359987Y-94785088D01*
X123506250Y-94953938D01*
X123510225Y-94957238D01*
X123510228Y-94957241D01*
X123601185Y-95032755D01*
X123640820Y-95091658D01*
X123646700Y-95129699D01*
X123646700Y-95495930D01*
X123626698Y-95564051D01*
X123609795Y-95585025D01*
X122763025Y-96431795D01*
X122700713Y-96465821D01*
X122673930Y-96468700D01*
X89417263Y-96468700D01*
X89415944Y-96468693D01*
X89325291Y-96467744D01*
X89318405Y-96469233D01*
X89318403Y-96469233D01*
X89299670Y-96473284D01*
X89282630Y-96476968D01*
X89270051Y-96479028D01*
X89233671Y-96483108D01*
X89233668Y-96483109D01*
X89226675Y-96483893D01*
X89194774Y-96495002D01*
X89179964Y-96499164D01*
X89153839Y-96504812D01*
X89153836Y-96504813D01*
X89146949Y-96506302D01*
X89140562Y-96509280D01*
X89140560Y-96509281D01*
X89107390Y-96524749D01*
X89095581Y-96529545D01*
X89054361Y-96543899D01*
X89048386Y-96547633D01*
X89048381Y-96547635D01*
X89025720Y-96561795D01*
X89012201Y-96569136D01*
X88987963Y-96580438D01*
X88987959Y-96580440D01*
X88981582Y-96583414D01*
X88976023Y-96587726D01*
X88976015Y-96587731D01*
X88947092Y-96610167D01*
X88936634Y-96617463D01*
X88899624Y-96640589D01*
X88894624Y-96645555D01*
X88894622Y-96645556D01*
X88870656Y-96669356D01*
X88870018Y-96669953D01*
X88869347Y-96670473D01*
X88843089Y-96696731D01*
X88770154Y-96769159D01*
X88769494Y-96770200D01*
X88768385Y-96771435D01*
X87131531Y-98408289D01*
X87130594Y-98409218D01*
X87065750Y-98472718D01*
X87061936Y-98478636D01*
X87061932Y-98478641D01*
X87042105Y-98509407D01*
X87034666Y-98519760D01*
X87007437Y-98553869D01*
X87004372Y-98560209D01*
X87004369Y-98560214D01*
X86992735Y-98584279D01*
X86985208Y-98597692D01*
X86970726Y-98620164D01*
X86970723Y-98620171D01*
X86966908Y-98626090D01*
X86964498Y-98632710D01*
X86964498Y-98632711D01*
X86951979Y-98667107D01*
X86947018Y-98678851D01*
X86932826Y-98708209D01*
X86928023Y-98718144D01*
X86920423Y-98751064D01*
X86916057Y-98765799D01*
X86906911Y-98790928D01*
X86906909Y-98790934D01*
X86904502Y-98797549D01*
X86902611Y-98812516D01*
X86899031Y-98840859D01*
X86896797Y-98853400D01*
X86886978Y-98895930D01*
X86886953Y-98902976D01*
X86886953Y-98902979D01*
X86886835Y-98936741D01*
X86886805Y-98937634D01*
X86886700Y-98938470D01*
X86886700Y-98975560D01*
X86886341Y-99078392D01*
X86886611Y-99079598D01*
X86886700Y-99081247D01*
X86886700Y-99176648D01*
X86866698Y-99244769D01*
X86813042Y-99291262D01*
X86794076Y-99297778D01*
X86789684Y-99298255D01*
X86653295Y-99349385D01*
X86536739Y-99436739D01*
X86449385Y-99553295D01*
X86398255Y-99689684D01*
X86391500Y-99751866D01*
X86391500Y-101448134D01*
X86398255Y-101510316D01*
X86449385Y-101646705D01*
X86536739Y-101763261D01*
X86653295Y-101850615D01*
X86789684Y-101901745D01*
X86833252Y-101906478D01*
X86848486Y-101908133D01*
X86848489Y-101908133D01*
X86851866Y-101908500D01*
X86855185Y-101908500D01*
X86922110Y-101932153D01*
X86957804Y-101978156D01*
X86959734Y-101977141D01*
X86965442Y-101988000D01*
X86965632Y-101988245D01*
X86965653Y-101988403D01*
X86985644Y-102026434D01*
X87687188Y-102727978D01*
X87701132Y-102735592D01*
X87702965Y-102735461D01*
X87709580Y-102731210D01*
X88415077Y-102025713D01*
X88437871Y-101983971D01*
X88440047Y-101973971D01*
X88490253Y-101923773D01*
X88543814Y-101908549D01*
X88544719Y-101908500D01*
X88548134Y-101908500D01*
X88551530Y-101908131D01*
X88551532Y-101908131D01*
X88563879Y-101906790D01*
X88610316Y-101901745D01*
X88746705Y-101850615D01*
X88863261Y-101763261D01*
X88950615Y-101646705D01*
X89001745Y-101510316D01*
X89008500Y-101448134D01*
X89008500Y-99751866D01*
X89001745Y-99689684D01*
X88950615Y-99553295D01*
X88863261Y-99436739D01*
X88746705Y-99349385D01*
X88738297Y-99346233D01*
X88730425Y-99341923D01*
X88731853Y-99339315D01*
X88687053Y-99305659D01*
X88662355Y-99239097D01*
X88677564Y-99169748D01*
X88698954Y-99141226D01*
X89707975Y-98132205D01*
X89770287Y-98098179D01*
X89797070Y-98095300D01*
X123053783Y-98095300D01*
X123055104Y-98095307D01*
X123145709Y-98096256D01*
X123188370Y-98087032D01*
X123200949Y-98084972D01*
X123237329Y-98080892D01*
X123237332Y-98080891D01*
X123244325Y-98080107D01*
X123276226Y-98068998D01*
X123291036Y-98064836D01*
X123324051Y-98057698D01*
X123330440Y-98054719D01*
X123363619Y-98039248D01*
X123375429Y-98034452D01*
X123416639Y-98020101D01*
X123445283Y-98002202D01*
X123458792Y-97994867D01*
X123489419Y-97980585D01*
X123523910Y-97953831D01*
X123534366Y-97946537D01*
X123565400Y-97927145D01*
X123571376Y-97923411D01*
X123600344Y-97894644D01*
X123600982Y-97894047D01*
X123601653Y-97893527D01*
X123627911Y-97867269D01*
X123700846Y-97794841D01*
X123701506Y-97793800D01*
X123702615Y-97792565D01*
X125006905Y-96488275D01*
X125069217Y-96454249D01*
X125140032Y-96459314D01*
X125196868Y-96501861D01*
X125221679Y-96568381D01*
X125222000Y-96577370D01*
X125222000Y-107875337D01*
X125201998Y-107943458D01*
X125148342Y-107989951D01*
X125078068Y-108000055D01*
X125035107Y-107985646D01*
X125018789Y-107976638D01*
X125013920Y-107974914D01*
X125013916Y-107974912D01*
X124813087Y-107903795D01*
X124813083Y-107903794D01*
X124808212Y-107902069D01*
X124803119Y-107901162D01*
X124803116Y-107901161D01*
X124593373Y-107863800D01*
X124593367Y-107863799D01*
X124588284Y-107862894D01*
X124514452Y-107861992D01*
X124370081Y-107860228D01*
X124370079Y-107860228D01*
X124364911Y-107860165D01*
X124144091Y-107893955D01*
X123931756Y-107963357D01*
X123733607Y-108066507D01*
X123729474Y-108069610D01*
X123729471Y-108069612D01*
X123559100Y-108197530D01*
X123554965Y-108200635D01*
X123551393Y-108204373D01*
X123443729Y-108317037D01*
X123400629Y-108362138D01*
X123293201Y-108519621D01*
X123238293Y-108564621D01*
X123167768Y-108572792D01*
X123104021Y-108541538D01*
X123083324Y-108517054D01*
X123002822Y-108392617D01*
X123002820Y-108392614D01*
X123000014Y-108388277D01*
X122849670Y-108223051D01*
X122845619Y-108219852D01*
X122845615Y-108219848D01*
X122678414Y-108087800D01*
X122678410Y-108087798D01*
X122674359Y-108084598D01*
X122478789Y-107976638D01*
X122473920Y-107974914D01*
X122473916Y-107974912D01*
X122273087Y-107903795D01*
X122273083Y-107903794D01*
X122268212Y-107902069D01*
X122263119Y-107901162D01*
X122263116Y-107901161D01*
X122053373Y-107863800D01*
X122053367Y-107863799D01*
X122048284Y-107862894D01*
X121974452Y-107861992D01*
X121830081Y-107860228D01*
X121830079Y-107860228D01*
X121824911Y-107860165D01*
X121604091Y-107893955D01*
X121603806Y-107892093D01*
X121541055Y-107888829D01*
X121493689Y-107859035D01*
X118352703Y-104718050D01*
X118346849Y-104711784D01*
X118316559Y-104677062D01*
X118311565Y-104671337D01*
X118262987Y-104637196D01*
X118257693Y-104633264D01*
X118216944Y-104601312D01*
X118216945Y-104601312D01*
X118210968Y-104596626D01*
X118204044Y-104593500D01*
X118197913Y-104589787D01*
X118193293Y-104587151D01*
X118186911Y-104583729D01*
X118180692Y-104579358D01*
X118125375Y-104557790D01*
X118119296Y-104555235D01*
X118065177Y-104530800D01*
X118057701Y-104529414D01*
X118050823Y-104527259D01*
X118045698Y-104525799D01*
X118038734Y-104524011D01*
X118031655Y-104521251D01*
X118024123Y-104520259D01*
X118024121Y-104520259D01*
X117998893Y-104516938D01*
X117972789Y-104513502D01*
X117966291Y-104512473D01*
X117907892Y-104501649D01*
X117900312Y-104502086D01*
X117900311Y-104502086D01*
X117850122Y-104504980D01*
X117842869Y-104505189D01*
X115527284Y-104505189D01*
X115459163Y-104485187D01*
X115412670Y-104431531D01*
X115402566Y-104361257D01*
X115433648Y-104294879D01*
X115542621Y-104173852D01*
X115542622Y-104173851D01*
X115547040Y-104168944D01*
X115642527Y-104003556D01*
X115701542Y-103821928D01*
X115702476Y-103813048D01*
X115720814Y-103638565D01*
X115721504Y-103632000D01*
X115707522Y-103498971D01*
X115702232Y-103448635D01*
X115702232Y-103448633D01*
X115701542Y-103442072D01*
X115642527Y-103260444D01*
X115547040Y-103095056D01*
X115481394Y-103022148D01*
X115423675Y-102958045D01*
X115423674Y-102958044D01*
X115419253Y-102953134D01*
X115264752Y-102840882D01*
X115258724Y-102838198D01*
X115258722Y-102838197D01*
X115096319Y-102765891D01*
X115096318Y-102765891D01*
X115090288Y-102763206D01*
X114989718Y-102741829D01*
X114909944Y-102724872D01*
X114909939Y-102724872D01*
X114903487Y-102723500D01*
X114712513Y-102723500D01*
X114706061Y-102724872D01*
X114706056Y-102724872D01*
X114567340Y-102754358D01*
X114525712Y-102763206D01*
X114519679Y-102765892D01*
X114519676Y-102765893D01*
X114478248Y-102784338D01*
X114407881Y-102793772D01*
X114375752Y-102784338D01*
X114334324Y-102765893D01*
X114334321Y-102765892D01*
X114328288Y-102763206D01*
X114286660Y-102754358D01*
X114147944Y-102724872D01*
X114147939Y-102724872D01*
X114141487Y-102723500D01*
X113950513Y-102723500D01*
X113944061Y-102724872D01*
X113944056Y-102724872D01*
X113864282Y-102741829D01*
X113763712Y-102763206D01*
X113757682Y-102765891D01*
X113757681Y-102765891D01*
X113663536Y-102807807D01*
X113612287Y-102818700D01*
X91957263Y-102818700D01*
X91955944Y-102818693D01*
X91865291Y-102817744D01*
X91858405Y-102819233D01*
X91858403Y-102819233D01*
X91839670Y-102823284D01*
X91822630Y-102826968D01*
X91810051Y-102829028D01*
X91773671Y-102833108D01*
X91773668Y-102833109D01*
X91766675Y-102833893D01*
X91735460Y-102844763D01*
X91734774Y-102845002D01*
X91719964Y-102849164D01*
X91693839Y-102854812D01*
X91693836Y-102854813D01*
X91686949Y-102856302D01*
X91680562Y-102859280D01*
X91680560Y-102859281D01*
X91647390Y-102874749D01*
X91635581Y-102879545D01*
X91594361Y-102893899D01*
X91588386Y-102897633D01*
X91588381Y-102897635D01*
X91565720Y-102911795D01*
X91552201Y-102919136D01*
X91527963Y-102930438D01*
X91527959Y-102930440D01*
X91521582Y-102933414D01*
X91516023Y-102937726D01*
X91516015Y-102937731D01*
X91487092Y-102960167D01*
X91476634Y-102967463D01*
X91439624Y-102990589D01*
X91434624Y-102995555D01*
X91434622Y-102995556D01*
X91410656Y-103019356D01*
X91410018Y-103019953D01*
X91409347Y-103020473D01*
X91383089Y-103046731D01*
X91323934Y-103105475D01*
X91310154Y-103119159D01*
X91309494Y-103120200D01*
X91308385Y-103121435D01*
X88854025Y-105575795D01*
X88791713Y-105609821D01*
X88764930Y-105612700D01*
X81203547Y-105612700D01*
X81135426Y-105592698D01*
X81096404Y-105553004D01*
X81079478Y-105525652D01*
X80954303Y-105400695D01*
X80808220Y-105310647D01*
X80760727Y-105257876D01*
X80749303Y-105187804D01*
X80777577Y-105122680D01*
X80787364Y-105112218D01*
X80897906Y-105006766D01*
X80904941Y-104998814D01*
X81036141Y-104822475D01*
X81041745Y-104813438D01*
X81141357Y-104617516D01*
X81145357Y-104607665D01*
X81210534Y-104397760D01*
X81212817Y-104387376D01*
X81214861Y-104371957D01*
X81212665Y-104357793D01*
X81199478Y-104354000D01*
X78314808Y-104354000D01*
X78301277Y-104357973D01*
X78299752Y-104368580D01*
X78324477Y-104486421D01*
X78327537Y-104496617D01*
X78408263Y-104701029D01*
X78412994Y-104710561D01*
X78527016Y-104898462D01*
X78533280Y-104907052D01*
X78677327Y-105073052D01*
X78684956Y-105080470D01*
X78716569Y-105106391D01*
X78756564Y-105165051D01*
X78758496Y-105236021D01*
X78721752Y-105296770D01*
X78702983Y-105310969D01*
X78556652Y-105401522D01*
X78431695Y-105526697D01*
X78338885Y-105677262D01*
X78283203Y-105845139D01*
X78272500Y-105949600D01*
X78272500Y-107250400D01*
X78272837Y-107253646D01*
X78272837Y-107253650D01*
X78281931Y-107341290D01*
X78283474Y-107356166D01*
X78339450Y-107523946D01*
X78432522Y-107674348D01*
X78557697Y-107799305D01*
X78563927Y-107803145D01*
X78563928Y-107803146D01*
X78701090Y-107887694D01*
X78708262Y-107892115D01*
X78769869Y-107912549D01*
X78869611Y-107945632D01*
X78869613Y-107945632D01*
X78876139Y-107947797D01*
X78882975Y-107948497D01*
X78882978Y-107948498D01*
X78926031Y-107952909D01*
X78980600Y-107958500D01*
X80531400Y-107958500D01*
X80534646Y-107958163D01*
X80534650Y-107958163D01*
X80630308Y-107948238D01*
X80630312Y-107948237D01*
X80637166Y-107947526D01*
X80643702Y-107945345D01*
X80643704Y-107945345D01*
X80792921Y-107895562D01*
X80804946Y-107891550D01*
X80955348Y-107798478D01*
X81080305Y-107673303D01*
X81173115Y-107522738D01*
X81228797Y-107354861D01*
X81229498Y-107348022D01*
X81230941Y-107341290D01*
X81233393Y-107341816D01*
X81255874Y-107286743D01*
X81313984Y-107245953D01*
X81354387Y-107239300D01*
X89144783Y-107239300D01*
X89146104Y-107239307D01*
X89236709Y-107240256D01*
X89279370Y-107231032D01*
X89291949Y-107228972D01*
X89328329Y-107224892D01*
X89328332Y-107224891D01*
X89335325Y-107224107D01*
X89367226Y-107212998D01*
X89382036Y-107208836D01*
X89415051Y-107201698D01*
X89421440Y-107198719D01*
X89454619Y-107183248D01*
X89466429Y-107178452D01*
X89507639Y-107164101D01*
X89536283Y-107146202D01*
X89549792Y-107138867D01*
X89580419Y-107124585D01*
X89614910Y-107097831D01*
X89625366Y-107090537D01*
X89656400Y-107071145D01*
X89662376Y-107067411D01*
X89691344Y-107038644D01*
X89691982Y-107038047D01*
X89692653Y-107037527D01*
X89718911Y-107011269D01*
X89791846Y-106938841D01*
X89792506Y-106937800D01*
X89793615Y-106936565D01*
X92247975Y-104482205D01*
X92310287Y-104448179D01*
X92337070Y-104445300D01*
X96171040Y-104445300D01*
X96239161Y-104465302D01*
X96285654Y-104518958D01*
X96295758Y-104589232D01*
X96280159Y-104634299D01*
X96193473Y-104784444D01*
X96134458Y-104966072D01*
X96114496Y-105156000D01*
X96115186Y-105162565D01*
X96130460Y-105307885D01*
X96134458Y-105345928D01*
X96193473Y-105527556D01*
X96288960Y-105692944D01*
X96293378Y-105697851D01*
X96293379Y-105697852D01*
X96409839Y-105827194D01*
X96416747Y-105834866D01*
X96571248Y-105947118D01*
X96577276Y-105949802D01*
X96577278Y-105949803D01*
X96584048Y-105952817D01*
X96745712Y-106024794D01*
X96839113Y-106044647D01*
X96926056Y-106063128D01*
X96926061Y-106063128D01*
X96932513Y-106064500D01*
X97123487Y-106064500D01*
X97129939Y-106063128D01*
X97129944Y-106063128D01*
X97216887Y-106044647D01*
X97310288Y-106024794D01*
X97471952Y-105952817D01*
X97478722Y-105949803D01*
X97478724Y-105949802D01*
X97484752Y-105947118D01*
X97615701Y-105851978D01*
X97630860Y-105840964D01*
X97697728Y-105817106D01*
X97704921Y-105816900D01*
X101939079Y-105816900D01*
X102007200Y-105836902D01*
X102013140Y-105840964D01*
X102028300Y-105851978D01*
X102159248Y-105947118D01*
X102165276Y-105949802D01*
X102165278Y-105949803D01*
X102172048Y-105952817D01*
X102333712Y-106024794D01*
X102427113Y-106044647D01*
X102514056Y-106063128D01*
X102514061Y-106063128D01*
X102520513Y-106064500D01*
X102711487Y-106064500D01*
X102717939Y-106063128D01*
X102717944Y-106063128D01*
X102804887Y-106044647D01*
X102898288Y-106024794D01*
X103059952Y-105952817D01*
X103066722Y-105949803D01*
X103066724Y-105949802D01*
X103072752Y-105947118D01*
X103187300Y-105863894D01*
X103204974Y-105851053D01*
X103271842Y-105827194D01*
X103279035Y-105826989D01*
X117540145Y-105826989D01*
X117608266Y-105846991D01*
X117629240Y-105863894D01*
X119410857Y-107645510D01*
X119444882Y-107707822D01*
X119439818Y-107778637D01*
X119397271Y-107835473D01*
X119330751Y-107860284D01*
X119320224Y-107860596D01*
X119290081Y-107860228D01*
X119290079Y-107860228D01*
X119284911Y-107860165D01*
X119064091Y-107893955D01*
X118851756Y-107963357D01*
X118653607Y-108066507D01*
X118649474Y-108069610D01*
X118649471Y-108069612D01*
X118479100Y-108197530D01*
X118474965Y-108200635D01*
X118471393Y-108204373D01*
X118363729Y-108317037D01*
X118320629Y-108362138D01*
X118213201Y-108519621D01*
X118158293Y-108564621D01*
X118087768Y-108572792D01*
X118024021Y-108541538D01*
X118003324Y-108517054D01*
X117922822Y-108392617D01*
X117922820Y-108392614D01*
X117920014Y-108388277D01*
X117769670Y-108223051D01*
X117765619Y-108219852D01*
X117765615Y-108219848D01*
X117598414Y-108087800D01*
X117598410Y-108087798D01*
X117594359Y-108084598D01*
X117398789Y-107976638D01*
X117393920Y-107974914D01*
X117393916Y-107974912D01*
X117193087Y-107903795D01*
X117193083Y-107903794D01*
X117188212Y-107902069D01*
X117183119Y-107901162D01*
X117183116Y-107901161D01*
X116973373Y-107863800D01*
X116973367Y-107863799D01*
X116968284Y-107862894D01*
X116894452Y-107861992D01*
X116750081Y-107860228D01*
X116750079Y-107860228D01*
X116744911Y-107860165D01*
X116524091Y-107893955D01*
X116311756Y-107963357D01*
X116113607Y-108066507D01*
X116109474Y-108069610D01*
X116109471Y-108069612D01*
X115939100Y-108197530D01*
X115934965Y-108200635D01*
X115931393Y-108204373D01*
X115823729Y-108317037D01*
X115780629Y-108362138D01*
X115673201Y-108519621D01*
X115618293Y-108564621D01*
X115547768Y-108572792D01*
X115484021Y-108541538D01*
X115463324Y-108517054D01*
X115382822Y-108392617D01*
X115382820Y-108392614D01*
X115380014Y-108388277D01*
X115229670Y-108223051D01*
X115225619Y-108219852D01*
X115225615Y-108219848D01*
X115058414Y-108087800D01*
X115058410Y-108087798D01*
X115054359Y-108084598D01*
X114858789Y-107976638D01*
X114853920Y-107974914D01*
X114853916Y-107974912D01*
X114653087Y-107903795D01*
X114653083Y-107903794D01*
X114648212Y-107902069D01*
X114643119Y-107901162D01*
X114643116Y-107901161D01*
X114433373Y-107863800D01*
X114433367Y-107863799D01*
X114428284Y-107862894D01*
X114354452Y-107861992D01*
X114210081Y-107860228D01*
X114210079Y-107860228D01*
X114204911Y-107860165D01*
X113984091Y-107893955D01*
X113771756Y-107963357D01*
X113573607Y-108066507D01*
X113569474Y-108069610D01*
X113569471Y-108069612D01*
X113399100Y-108197530D01*
X113394965Y-108200635D01*
X113391393Y-108204373D01*
X113283729Y-108317037D01*
X113240629Y-108362138D01*
X113133201Y-108519621D01*
X113078293Y-108564621D01*
X113007768Y-108572792D01*
X112944021Y-108541538D01*
X112923324Y-108517054D01*
X112842822Y-108392617D01*
X112842820Y-108392614D01*
X112840014Y-108388277D01*
X112689670Y-108223051D01*
X112685619Y-108219852D01*
X112685615Y-108219848D01*
X112518414Y-108087800D01*
X112518410Y-108087798D01*
X112514359Y-108084598D01*
X112318789Y-107976638D01*
X112313920Y-107974914D01*
X112313916Y-107974912D01*
X112113087Y-107903795D01*
X112113083Y-107903794D01*
X112108212Y-107902069D01*
X112103119Y-107901162D01*
X112103116Y-107901161D01*
X111893373Y-107863800D01*
X111893367Y-107863799D01*
X111888284Y-107862894D01*
X111814452Y-107861992D01*
X111670081Y-107860228D01*
X111670079Y-107860228D01*
X111664911Y-107860165D01*
X111444091Y-107893955D01*
X111231756Y-107963357D01*
X111033607Y-108066507D01*
X111029474Y-108069610D01*
X111029471Y-108069612D01*
X110859100Y-108197530D01*
X110854965Y-108200635D01*
X110851393Y-108204373D01*
X110743729Y-108317037D01*
X110700629Y-108362138D01*
X110593201Y-108519621D01*
X110538293Y-108564621D01*
X110467768Y-108572792D01*
X110404021Y-108541538D01*
X110383324Y-108517054D01*
X110302822Y-108392617D01*
X110302820Y-108392614D01*
X110300014Y-108388277D01*
X110149670Y-108223051D01*
X110145619Y-108219852D01*
X110145615Y-108219848D01*
X109978414Y-108087800D01*
X109978410Y-108087798D01*
X109974359Y-108084598D01*
X109778789Y-107976638D01*
X109773920Y-107974914D01*
X109773916Y-107974912D01*
X109573087Y-107903795D01*
X109573083Y-107903794D01*
X109568212Y-107902069D01*
X109563119Y-107901162D01*
X109563116Y-107901161D01*
X109353373Y-107863800D01*
X109353367Y-107863799D01*
X109348284Y-107862894D01*
X109274452Y-107861992D01*
X109130081Y-107860228D01*
X109130079Y-107860228D01*
X109124911Y-107860165D01*
X108904091Y-107893955D01*
X108691756Y-107963357D01*
X108493607Y-108066507D01*
X108489474Y-108069610D01*
X108489471Y-108069612D01*
X108319100Y-108197530D01*
X108314965Y-108200635D01*
X108311393Y-108204373D01*
X108203729Y-108317037D01*
X108160629Y-108362138D01*
X108053201Y-108519621D01*
X107998293Y-108564621D01*
X107927768Y-108572792D01*
X107864021Y-108541538D01*
X107843324Y-108517054D01*
X107762822Y-108392617D01*
X107762820Y-108392614D01*
X107760014Y-108388277D01*
X107609670Y-108223051D01*
X107605619Y-108219852D01*
X107605615Y-108219848D01*
X107438414Y-108087800D01*
X107438410Y-108087798D01*
X107434359Y-108084598D01*
X107238789Y-107976638D01*
X107233920Y-107974914D01*
X107233916Y-107974912D01*
X107033087Y-107903795D01*
X107033083Y-107903794D01*
X107028212Y-107902069D01*
X107023119Y-107901162D01*
X107023116Y-107901161D01*
X106813373Y-107863800D01*
X106813367Y-107863799D01*
X106808284Y-107862894D01*
X106734452Y-107861992D01*
X106590081Y-107860228D01*
X106590079Y-107860228D01*
X106584911Y-107860165D01*
X106364091Y-107893955D01*
X106151756Y-107963357D01*
X105953607Y-108066507D01*
X105949474Y-108069610D01*
X105949471Y-108069612D01*
X105779100Y-108197530D01*
X105774965Y-108200635D01*
X105771393Y-108204373D01*
X105663729Y-108317037D01*
X105620629Y-108362138D01*
X105513201Y-108519621D01*
X105458293Y-108564621D01*
X105387768Y-108572792D01*
X105324021Y-108541538D01*
X105303324Y-108517054D01*
X105222822Y-108392617D01*
X105222820Y-108392614D01*
X105220014Y-108388277D01*
X105069670Y-108223051D01*
X105065619Y-108219852D01*
X105065615Y-108219848D01*
X104898414Y-108087800D01*
X104898410Y-108087798D01*
X104894359Y-108084598D01*
X104698789Y-107976638D01*
X104693920Y-107974914D01*
X104693916Y-107974912D01*
X104493087Y-107903795D01*
X104493083Y-107903794D01*
X104488212Y-107902069D01*
X104483119Y-107901162D01*
X104483116Y-107901161D01*
X104273373Y-107863800D01*
X104273367Y-107863799D01*
X104268284Y-107862894D01*
X104194452Y-107861992D01*
X104050081Y-107860228D01*
X104050079Y-107860228D01*
X104044911Y-107860165D01*
X103824091Y-107893955D01*
X103611756Y-107963357D01*
X103413607Y-108066507D01*
X103409474Y-108069610D01*
X103409471Y-108069612D01*
X103239100Y-108197530D01*
X103234965Y-108200635D01*
X103231393Y-108204373D01*
X103123729Y-108317037D01*
X103080629Y-108362138D01*
X102973201Y-108519621D01*
X102918293Y-108564621D01*
X102847768Y-108572792D01*
X102784021Y-108541538D01*
X102763324Y-108517054D01*
X102682822Y-108392617D01*
X102682820Y-108392614D01*
X102680014Y-108388277D01*
X102529670Y-108223051D01*
X102525619Y-108219852D01*
X102525615Y-108219848D01*
X102358414Y-108087800D01*
X102358410Y-108087798D01*
X102354359Y-108084598D01*
X102158789Y-107976638D01*
X102153920Y-107974914D01*
X102153916Y-107974912D01*
X101953087Y-107903795D01*
X101953083Y-107903794D01*
X101948212Y-107902069D01*
X101943119Y-107901162D01*
X101943116Y-107901161D01*
X101733373Y-107863800D01*
X101733367Y-107863799D01*
X101728284Y-107862894D01*
X101654452Y-107861992D01*
X101510081Y-107860228D01*
X101510079Y-107860228D01*
X101504911Y-107860165D01*
X101284091Y-107893955D01*
X101071756Y-107963357D01*
X100873607Y-108066507D01*
X100869474Y-108069610D01*
X100869471Y-108069612D01*
X100699100Y-108197530D01*
X100694965Y-108200635D01*
X100691393Y-108204373D01*
X100583729Y-108317037D01*
X100540629Y-108362138D01*
X100433201Y-108519621D01*
X100378293Y-108564621D01*
X100307768Y-108572792D01*
X100244021Y-108541538D01*
X100223324Y-108517054D01*
X100142822Y-108392617D01*
X100142820Y-108392614D01*
X100140014Y-108388277D01*
X99989670Y-108223051D01*
X99985619Y-108219852D01*
X99985615Y-108219848D01*
X99818414Y-108087800D01*
X99818410Y-108087798D01*
X99814359Y-108084598D01*
X99618789Y-107976638D01*
X99613920Y-107974914D01*
X99613916Y-107974912D01*
X99413087Y-107903795D01*
X99413083Y-107903794D01*
X99408212Y-107902069D01*
X99403119Y-107901162D01*
X99403116Y-107901161D01*
X99193373Y-107863800D01*
X99193367Y-107863799D01*
X99188284Y-107862894D01*
X99114452Y-107861992D01*
X98970081Y-107860228D01*
X98970079Y-107860228D01*
X98964911Y-107860165D01*
X98744091Y-107893955D01*
X98531756Y-107963357D01*
X98333607Y-108066507D01*
X98329474Y-108069610D01*
X98329471Y-108069612D01*
X98159100Y-108197530D01*
X98154965Y-108200635D01*
X98151393Y-108204373D01*
X98043729Y-108317037D01*
X98000629Y-108362138D01*
X97893201Y-108519621D01*
X97838293Y-108564621D01*
X97767768Y-108572792D01*
X97704021Y-108541538D01*
X97683324Y-108517054D01*
X97602822Y-108392617D01*
X97602820Y-108392614D01*
X97600014Y-108388277D01*
X97449670Y-108223051D01*
X97445619Y-108219852D01*
X97445615Y-108219848D01*
X97278414Y-108087800D01*
X97278410Y-108087798D01*
X97274359Y-108084598D01*
X97078789Y-107976638D01*
X97073920Y-107974914D01*
X97073916Y-107974912D01*
X96873087Y-107903795D01*
X96873083Y-107903794D01*
X96868212Y-107902069D01*
X96863119Y-107901162D01*
X96863116Y-107901161D01*
X96653373Y-107863800D01*
X96653367Y-107863799D01*
X96648284Y-107862894D01*
X96574452Y-107861992D01*
X96430081Y-107860228D01*
X96430079Y-107860228D01*
X96424911Y-107860165D01*
X96204091Y-107893955D01*
X95991756Y-107963357D01*
X95793607Y-108066507D01*
X95789474Y-108069610D01*
X95789471Y-108069612D01*
X95619100Y-108197530D01*
X95614965Y-108200635D01*
X95611393Y-108204373D01*
X95503729Y-108317037D01*
X95460629Y-108362138D01*
X95353201Y-108519621D01*
X95298293Y-108564621D01*
X95227768Y-108572792D01*
X95164021Y-108541538D01*
X95143324Y-108517054D01*
X95062822Y-108392617D01*
X95062820Y-108392614D01*
X95060014Y-108388277D01*
X94909670Y-108223051D01*
X94905619Y-108219852D01*
X94905615Y-108219848D01*
X94738414Y-108087800D01*
X94738410Y-108087798D01*
X94734359Y-108084598D01*
X94538789Y-107976638D01*
X94533920Y-107974914D01*
X94533916Y-107974912D01*
X94333087Y-107903795D01*
X94333083Y-107903794D01*
X94328212Y-107902069D01*
X94323119Y-107901162D01*
X94323116Y-107901161D01*
X94113373Y-107863800D01*
X94113367Y-107863799D01*
X94108284Y-107862894D01*
X94034452Y-107861992D01*
X93890081Y-107860228D01*
X93890079Y-107860228D01*
X93884911Y-107860165D01*
X93664091Y-107893955D01*
X93451756Y-107963357D01*
X93253607Y-108066507D01*
X93249474Y-108069610D01*
X93249471Y-108069612D01*
X93079100Y-108197530D01*
X93074965Y-108200635D01*
X93018537Y-108259684D01*
X92994283Y-108285064D01*
X92932759Y-108320494D01*
X92861846Y-108317037D01*
X92804060Y-108275791D01*
X92785207Y-108242243D01*
X92743767Y-108131703D01*
X92740615Y-108123295D01*
X92653261Y-108006739D01*
X92536705Y-107919385D01*
X92400316Y-107868255D01*
X92338134Y-107861500D01*
X90541866Y-107861500D01*
X90479684Y-107868255D01*
X90343295Y-107919385D01*
X90226739Y-108006739D01*
X90139385Y-108123295D01*
X90088255Y-108259684D01*
X90081500Y-108321866D01*
X90081500Y-110118134D01*
X90088255Y-110180316D01*
X90139385Y-110316705D01*
X90226739Y-110433261D01*
X90343295Y-110520615D01*
X90479684Y-110571745D01*
X90541866Y-110578500D01*
X92338134Y-110578500D01*
X92400316Y-110571745D01*
X92536705Y-110520615D01*
X92653261Y-110433261D01*
X92740615Y-110316705D01*
X92762799Y-110257529D01*
X92784598Y-110199382D01*
X92827240Y-110142618D01*
X92893802Y-110117918D01*
X92963150Y-110133126D01*
X92997817Y-110161114D01*
X93026250Y-110193938D01*
X93198126Y-110336632D01*
X93391000Y-110449338D01*
X93599692Y-110529030D01*
X93604760Y-110530061D01*
X93604763Y-110530062D01*
X93712017Y-110551883D01*
X93818597Y-110573567D01*
X93823772Y-110573757D01*
X93823774Y-110573757D01*
X94036673Y-110581564D01*
X94036677Y-110581564D01*
X94041837Y-110581753D01*
X94046957Y-110581097D01*
X94046959Y-110581097D01*
X94258288Y-110554025D01*
X94258289Y-110554025D01*
X94263416Y-110553368D01*
X94268366Y-110551883D01*
X94472429Y-110490661D01*
X94472434Y-110490659D01*
X94477384Y-110489174D01*
X94677994Y-110390896D01*
X94859860Y-110261173D01*
X95018096Y-110103489D01*
X95148453Y-109922077D01*
X95149776Y-109923028D01*
X95196645Y-109879857D01*
X95266580Y-109867625D01*
X95332026Y-109895144D01*
X95359875Y-109926994D01*
X95419987Y-110025088D01*
X95566250Y-110193938D01*
X95738126Y-110336632D01*
X95931000Y-110449338D01*
X96139692Y-110529030D01*
X96144760Y-110530061D01*
X96144763Y-110530062D01*
X96252017Y-110551883D01*
X96358597Y-110573567D01*
X96363772Y-110573757D01*
X96363774Y-110573757D01*
X96576673Y-110581564D01*
X96576677Y-110581564D01*
X96581837Y-110581753D01*
X96586957Y-110581097D01*
X96586959Y-110581097D01*
X96798288Y-110554025D01*
X96798289Y-110554025D01*
X96803416Y-110553368D01*
X96808366Y-110551883D01*
X97012429Y-110490661D01*
X97012434Y-110490659D01*
X97017384Y-110489174D01*
X97217994Y-110390896D01*
X97399860Y-110261173D01*
X97558096Y-110103489D01*
X97688453Y-109922077D01*
X97689776Y-109923028D01*
X97736645Y-109879857D01*
X97806580Y-109867625D01*
X97872026Y-109895144D01*
X97899875Y-109926994D01*
X97959987Y-110025088D01*
X98106250Y-110193938D01*
X98278126Y-110336632D01*
X98471000Y-110449338D01*
X98679692Y-110529030D01*
X98684760Y-110530061D01*
X98684763Y-110530062D01*
X98792017Y-110551883D01*
X98898597Y-110573567D01*
X98903772Y-110573757D01*
X98903774Y-110573757D01*
X99116673Y-110581564D01*
X99116677Y-110581564D01*
X99121837Y-110581753D01*
X99126957Y-110581097D01*
X99126959Y-110581097D01*
X99338288Y-110554025D01*
X99338289Y-110554025D01*
X99343416Y-110553368D01*
X99348366Y-110551883D01*
X99552429Y-110490661D01*
X99552434Y-110490659D01*
X99557384Y-110489174D01*
X99757994Y-110390896D01*
X99939860Y-110261173D01*
X100098096Y-110103489D01*
X100228453Y-109922077D01*
X100229776Y-109923028D01*
X100276645Y-109879857D01*
X100346580Y-109867625D01*
X100412026Y-109895144D01*
X100439875Y-109926994D01*
X100499987Y-110025088D01*
X100646250Y-110193938D01*
X100818126Y-110336632D01*
X101011000Y-110449338D01*
X101219692Y-110529030D01*
X101224760Y-110530061D01*
X101224763Y-110530062D01*
X101332017Y-110551883D01*
X101438597Y-110573567D01*
X101443772Y-110573757D01*
X101443774Y-110573757D01*
X101656673Y-110581564D01*
X101656677Y-110581564D01*
X101661837Y-110581753D01*
X101666957Y-110581097D01*
X101666959Y-110581097D01*
X101878288Y-110554025D01*
X101878289Y-110554025D01*
X101883416Y-110553368D01*
X101888366Y-110551883D01*
X102092429Y-110490661D01*
X102092434Y-110490659D01*
X102097384Y-110489174D01*
X102297994Y-110390896D01*
X102479860Y-110261173D01*
X102638096Y-110103489D01*
X102768453Y-109922077D01*
X102769776Y-109923028D01*
X102816645Y-109879857D01*
X102886580Y-109867625D01*
X102952026Y-109895144D01*
X102979875Y-109926994D01*
X103039987Y-110025088D01*
X103186250Y-110193938D01*
X103358126Y-110336632D01*
X103551000Y-110449338D01*
X103759692Y-110529030D01*
X103764760Y-110530061D01*
X103764763Y-110530062D01*
X103872017Y-110551883D01*
X103978597Y-110573567D01*
X103983772Y-110573757D01*
X103983774Y-110573757D01*
X104196673Y-110581564D01*
X104196677Y-110581564D01*
X104201837Y-110581753D01*
X104206957Y-110581097D01*
X104206959Y-110581097D01*
X104418288Y-110554025D01*
X104418289Y-110554025D01*
X104423416Y-110553368D01*
X104428366Y-110551883D01*
X104632429Y-110490661D01*
X104632434Y-110490659D01*
X104637384Y-110489174D01*
X104837994Y-110390896D01*
X105019860Y-110261173D01*
X105178096Y-110103489D01*
X105308453Y-109922077D01*
X105309776Y-109923028D01*
X105356645Y-109879857D01*
X105426580Y-109867625D01*
X105492026Y-109895144D01*
X105519875Y-109926994D01*
X105579987Y-110025088D01*
X105726250Y-110193938D01*
X105898126Y-110336632D01*
X106091000Y-110449338D01*
X106299692Y-110529030D01*
X106304760Y-110530061D01*
X106304763Y-110530062D01*
X106412017Y-110551883D01*
X106518597Y-110573567D01*
X106523772Y-110573757D01*
X106523774Y-110573757D01*
X106736673Y-110581564D01*
X106736677Y-110581564D01*
X106741837Y-110581753D01*
X106746957Y-110581097D01*
X106746959Y-110581097D01*
X106958288Y-110554025D01*
X106958289Y-110554025D01*
X106963416Y-110553368D01*
X106968366Y-110551883D01*
X107172429Y-110490661D01*
X107172434Y-110490659D01*
X107177384Y-110489174D01*
X107377994Y-110390896D01*
X107559860Y-110261173D01*
X107718096Y-110103489D01*
X107848453Y-109922077D01*
X107849776Y-109923028D01*
X107896645Y-109879857D01*
X107966580Y-109867625D01*
X108032026Y-109895144D01*
X108059875Y-109926994D01*
X108119987Y-110025088D01*
X108266250Y-110193938D01*
X108438126Y-110336632D01*
X108631000Y-110449338D01*
X108839692Y-110529030D01*
X108844760Y-110530061D01*
X108844763Y-110530062D01*
X108952017Y-110551883D01*
X109058597Y-110573567D01*
X109063772Y-110573757D01*
X109063774Y-110573757D01*
X109276673Y-110581564D01*
X109276677Y-110581564D01*
X109281837Y-110581753D01*
X109286957Y-110581097D01*
X109286959Y-110581097D01*
X109498288Y-110554025D01*
X109498289Y-110554025D01*
X109503416Y-110553368D01*
X109508366Y-110551883D01*
X109712429Y-110490661D01*
X109712434Y-110490659D01*
X109717384Y-110489174D01*
X109917994Y-110390896D01*
X110099860Y-110261173D01*
X110258096Y-110103489D01*
X110388453Y-109922077D01*
X110389776Y-109923028D01*
X110436645Y-109879857D01*
X110506580Y-109867625D01*
X110572026Y-109895144D01*
X110599875Y-109926994D01*
X110659987Y-110025088D01*
X110806250Y-110193938D01*
X110978126Y-110336632D01*
X111171000Y-110449338D01*
X111379692Y-110529030D01*
X111384760Y-110530061D01*
X111384763Y-110530062D01*
X111492017Y-110551883D01*
X111598597Y-110573567D01*
X111603772Y-110573757D01*
X111603774Y-110573757D01*
X111816673Y-110581564D01*
X111816677Y-110581564D01*
X111821837Y-110581753D01*
X111826957Y-110581097D01*
X111826959Y-110581097D01*
X112038288Y-110554025D01*
X112038289Y-110554025D01*
X112043416Y-110553368D01*
X112048366Y-110551883D01*
X112252429Y-110490661D01*
X112252434Y-110490659D01*
X112257384Y-110489174D01*
X112457994Y-110390896D01*
X112639860Y-110261173D01*
X112798096Y-110103489D01*
X112928453Y-109922077D01*
X112929776Y-109923028D01*
X112976645Y-109879857D01*
X113046580Y-109867625D01*
X113112026Y-109895144D01*
X113139875Y-109926994D01*
X113199987Y-110025088D01*
X113346250Y-110193938D01*
X113518126Y-110336632D01*
X113711000Y-110449338D01*
X113919692Y-110529030D01*
X113924760Y-110530061D01*
X113924763Y-110530062D01*
X114032017Y-110551883D01*
X114138597Y-110573567D01*
X114143772Y-110573757D01*
X114143774Y-110573757D01*
X114356673Y-110581564D01*
X114356677Y-110581564D01*
X114361837Y-110581753D01*
X114366957Y-110581097D01*
X114366959Y-110581097D01*
X114578288Y-110554025D01*
X114578289Y-110554025D01*
X114583416Y-110553368D01*
X114588366Y-110551883D01*
X114792429Y-110490661D01*
X114792434Y-110490659D01*
X114797384Y-110489174D01*
X114997994Y-110390896D01*
X115179860Y-110261173D01*
X115338096Y-110103489D01*
X115468453Y-109922077D01*
X115469776Y-109923028D01*
X115516645Y-109879857D01*
X115586580Y-109867625D01*
X115652026Y-109895144D01*
X115679875Y-109926994D01*
X115739987Y-110025088D01*
X115886250Y-110193938D01*
X116058126Y-110336632D01*
X116251000Y-110449338D01*
X116459692Y-110529030D01*
X116464760Y-110530061D01*
X116464763Y-110530062D01*
X116572017Y-110551883D01*
X116678597Y-110573567D01*
X116683772Y-110573757D01*
X116683774Y-110573757D01*
X116896673Y-110581564D01*
X116896677Y-110581564D01*
X116901837Y-110581753D01*
X116906957Y-110581097D01*
X116906959Y-110581097D01*
X117118288Y-110554025D01*
X117118289Y-110554025D01*
X117123416Y-110553368D01*
X117128366Y-110551883D01*
X117332429Y-110490661D01*
X117332434Y-110490659D01*
X117337384Y-110489174D01*
X117537994Y-110390896D01*
X117719860Y-110261173D01*
X117878096Y-110103489D01*
X118008453Y-109922077D01*
X118009776Y-109923028D01*
X118056645Y-109879857D01*
X118126580Y-109867625D01*
X118192026Y-109895144D01*
X118219875Y-109926994D01*
X118279987Y-110025088D01*
X118426250Y-110193938D01*
X118598126Y-110336632D01*
X118791000Y-110449338D01*
X118999692Y-110529030D01*
X119004760Y-110530061D01*
X119004763Y-110530062D01*
X119112017Y-110551883D01*
X119218597Y-110573567D01*
X119223772Y-110573757D01*
X119223774Y-110573757D01*
X119436673Y-110581564D01*
X119436677Y-110581564D01*
X119441837Y-110581753D01*
X119446957Y-110581097D01*
X119446959Y-110581097D01*
X119658288Y-110554025D01*
X119658289Y-110554025D01*
X119663416Y-110553368D01*
X119668366Y-110551883D01*
X119872429Y-110490661D01*
X119872434Y-110490659D01*
X119877384Y-110489174D01*
X120077994Y-110390896D01*
X120259860Y-110261173D01*
X120418096Y-110103489D01*
X120548453Y-109922077D01*
X120549776Y-109923028D01*
X120596645Y-109879857D01*
X120666580Y-109867625D01*
X120732026Y-109895144D01*
X120759875Y-109926994D01*
X120819987Y-110025088D01*
X120966250Y-110193938D01*
X121138126Y-110336632D01*
X121331000Y-110449338D01*
X121539692Y-110529030D01*
X121544760Y-110530061D01*
X121544763Y-110530062D01*
X121652017Y-110551883D01*
X121758597Y-110573567D01*
X121763772Y-110573757D01*
X121763774Y-110573757D01*
X121976673Y-110581564D01*
X121976677Y-110581564D01*
X121981837Y-110581753D01*
X121986957Y-110581097D01*
X121986959Y-110581097D01*
X122198288Y-110554025D01*
X122198289Y-110554025D01*
X122203416Y-110553368D01*
X122208366Y-110551883D01*
X122412429Y-110490661D01*
X122412434Y-110490659D01*
X122417384Y-110489174D01*
X122617994Y-110390896D01*
X122799860Y-110261173D01*
X122958096Y-110103489D01*
X123088453Y-109922077D01*
X123089776Y-109923028D01*
X123136645Y-109879857D01*
X123206580Y-109867625D01*
X123272026Y-109895144D01*
X123299875Y-109926994D01*
X123359987Y-110025088D01*
X123506250Y-110193938D01*
X123678126Y-110336632D01*
X123871000Y-110449338D01*
X124079692Y-110529030D01*
X124084760Y-110530061D01*
X124084763Y-110530062D01*
X124192017Y-110551883D01*
X124298597Y-110573567D01*
X124303772Y-110573757D01*
X124303774Y-110573757D01*
X124516673Y-110581564D01*
X124516677Y-110581564D01*
X124521837Y-110581753D01*
X124526957Y-110581097D01*
X124526959Y-110581097D01*
X124738288Y-110554025D01*
X124738289Y-110554025D01*
X124743416Y-110553368D01*
X124748366Y-110551883D01*
X124952429Y-110490661D01*
X124952434Y-110490659D01*
X124957384Y-110489174D01*
X125040570Y-110448422D01*
X125110542Y-110436416D01*
X125175899Y-110464146D01*
X125215889Y-110522810D01*
X125222000Y-110561574D01*
X125222000Y-111126000D01*
X125201998Y-111194121D01*
X125148342Y-111240614D01*
X125096000Y-111252000D01*
X76834000Y-111252000D01*
X76765879Y-111231998D01*
X76719386Y-111178342D01*
X76708000Y-111126000D01*
X76708000Y-104186062D01*
X86978493Y-104186062D01*
X86987789Y-104198077D01*
X87038994Y-104233931D01*
X87048489Y-104239414D01*
X87245947Y-104331490D01*
X87256239Y-104335236D01*
X87466688Y-104391625D01*
X87477481Y-104393528D01*
X87694525Y-104412517D01*
X87705475Y-104412517D01*
X87922519Y-104393528D01*
X87933312Y-104391625D01*
X88143761Y-104335236D01*
X88154053Y-104331490D01*
X88351511Y-104239414D01*
X88361006Y-104233931D01*
X88413048Y-104197491D01*
X88421424Y-104187012D01*
X88414356Y-104173566D01*
X87712812Y-103472022D01*
X87698868Y-103464408D01*
X87697035Y-103464539D01*
X87690420Y-103468790D01*
X86984923Y-104174287D01*
X86978493Y-104186062D01*
X76708000Y-104186062D01*
X76708000Y-101535774D01*
X78269102Y-101535774D01*
X78277751Y-101766158D01*
X78325093Y-101991791D01*
X78327051Y-101996750D01*
X78327052Y-101996752D01*
X78338490Y-102025713D01*
X78409776Y-102206221D01*
X78529377Y-102403317D01*
X78532874Y-102407347D01*
X78619438Y-102507103D01*
X78680477Y-102577445D01*
X78684608Y-102580832D01*
X78854627Y-102720240D01*
X78854633Y-102720244D01*
X78858755Y-102723624D01*
X78863398Y-102726267D01*
X78890735Y-102741829D01*
X78940041Y-102792912D01*
X78953902Y-102862542D01*
X78927918Y-102928613D01*
X78898768Y-102955851D01*
X78781422Y-103034852D01*
X78773130Y-103041519D01*
X78614100Y-103193228D01*
X78607059Y-103201186D01*
X78475859Y-103377525D01*
X78470255Y-103386562D01*
X78370643Y-103582484D01*
X78366643Y-103592335D01*
X78301466Y-103802240D01*
X78299183Y-103812624D01*
X78297139Y-103828043D01*
X78299335Y-103842207D01*
X78312522Y-103846000D01*
X81197192Y-103846000D01*
X81210723Y-103842027D01*
X81212248Y-103831420D01*
X81187523Y-103713579D01*
X81184463Y-103703383D01*
X81103737Y-103498971D01*
X81099006Y-103489439D01*
X80984984Y-103301538D01*
X80978720Y-103292948D01*
X80834673Y-103126948D01*
X80827042Y-103119528D01*
X80809903Y-103105475D01*
X86387483Y-103105475D01*
X86406472Y-103322519D01*
X86408375Y-103333312D01*
X86464764Y-103543761D01*
X86468510Y-103554053D01*
X86560586Y-103751511D01*
X86566069Y-103761006D01*
X86602509Y-103813048D01*
X86612988Y-103821424D01*
X86626434Y-103814356D01*
X87327978Y-103112812D01*
X87334356Y-103101132D01*
X88064408Y-103101132D01*
X88064539Y-103102965D01*
X88068790Y-103109580D01*
X88774287Y-103815077D01*
X88786062Y-103821507D01*
X88798077Y-103812211D01*
X88833931Y-103761006D01*
X88839414Y-103751511D01*
X88931490Y-103554053D01*
X88935236Y-103543761D01*
X88991625Y-103333312D01*
X88993528Y-103322519D01*
X89012517Y-103105475D01*
X89012517Y-103094525D01*
X88993528Y-102877481D01*
X88991625Y-102866688D01*
X88935236Y-102656239D01*
X88931490Y-102645947D01*
X88839414Y-102448489D01*
X88833931Y-102438994D01*
X88797491Y-102386952D01*
X88787012Y-102378576D01*
X88773566Y-102385644D01*
X88072022Y-103087188D01*
X88064408Y-103101132D01*
X87334356Y-103101132D01*
X87335592Y-103098868D01*
X87335461Y-103097035D01*
X87331210Y-103090420D01*
X86625713Y-102384923D01*
X86613938Y-102378493D01*
X86601923Y-102387789D01*
X86566069Y-102438994D01*
X86560586Y-102448489D01*
X86468510Y-102645947D01*
X86464764Y-102656239D01*
X86408375Y-102866688D01*
X86406472Y-102877481D01*
X86387483Y-103094525D01*
X86387483Y-103105475D01*
X80809903Y-103105475D01*
X80657089Y-102980174D01*
X80648326Y-102974152D01*
X80621289Y-102958762D01*
X80571982Y-102907680D01*
X80558120Y-102838049D01*
X80584103Y-102771978D01*
X80613253Y-102744739D01*
X80666532Y-102708869D01*
X80735319Y-102662559D01*
X80902135Y-102503424D01*
X81039754Y-102318458D01*
X81144240Y-102112949D01*
X81180321Y-101996752D01*
X81211024Y-101897871D01*
X81212607Y-101892773D01*
X81218908Y-101845229D01*
X81242198Y-101669511D01*
X81242198Y-101669506D01*
X81242898Y-101664226D01*
X81234249Y-101433842D01*
X81186907Y-101208209D01*
X81102224Y-100993779D01*
X80982623Y-100796683D01*
X80895755Y-100696576D01*
X80835023Y-100626588D01*
X80835021Y-100626586D01*
X80831523Y-100622555D01*
X80789970Y-100588484D01*
X80657373Y-100479760D01*
X80657367Y-100479756D01*
X80653245Y-100476376D01*
X80621750Y-100458448D01*
X80572445Y-100407368D01*
X80558583Y-100337738D01*
X80584566Y-100271667D01*
X80613716Y-100244427D01*
X80649642Y-100220240D01*
X80735319Y-100162559D01*
X80902135Y-100003424D01*
X81039754Y-99818458D01*
X81144240Y-99612949D01*
X81160153Y-99561703D01*
X81211024Y-99397871D01*
X81212607Y-99392773D01*
X81226022Y-99291554D01*
X81242198Y-99169511D01*
X81242198Y-99169506D01*
X81242898Y-99164226D01*
X81234249Y-98933842D01*
X81186907Y-98708209D01*
X81157091Y-98632711D01*
X81104185Y-98498744D01*
X81104184Y-98498742D01*
X81102224Y-98493779D01*
X81086454Y-98467790D01*
X80985390Y-98301243D01*
X80982623Y-98296683D01*
X80895755Y-98196576D01*
X80835023Y-98126588D01*
X80835021Y-98126586D01*
X80831523Y-98122555D01*
X80754240Y-98059187D01*
X80657373Y-97979760D01*
X80657367Y-97979756D01*
X80653245Y-97976376D01*
X80621750Y-97958448D01*
X80572445Y-97907368D01*
X80558583Y-97837738D01*
X80584566Y-97771667D01*
X80613716Y-97744427D01*
X80649642Y-97720240D01*
X80735319Y-97662559D01*
X80902135Y-97503424D01*
X81039754Y-97318458D01*
X81144240Y-97112949D01*
X81180321Y-96996752D01*
X81211024Y-96897871D01*
X81212607Y-96892773D01*
X81228689Y-96771435D01*
X81242198Y-96669511D01*
X81242198Y-96669506D01*
X81242898Y-96664226D01*
X81241871Y-96636854D01*
X81236913Y-96504812D01*
X81234249Y-96433842D01*
X81186907Y-96208209D01*
X81102224Y-95993779D01*
X80982623Y-95796683D01*
X80895755Y-95696576D01*
X80835023Y-95626588D01*
X80835021Y-95626586D01*
X80831523Y-95622555D01*
X80740743Y-95548120D01*
X80657373Y-95479760D01*
X80657367Y-95479756D01*
X80653245Y-95476376D01*
X80648609Y-95473737D01*
X80648606Y-95473735D01*
X80457529Y-95364968D01*
X80452886Y-95362325D01*
X80236175Y-95283663D01*
X80230926Y-95282714D01*
X80230923Y-95282713D01*
X80013392Y-95243377D01*
X80013385Y-95243376D01*
X80009308Y-95242639D01*
X79991586Y-95241803D01*
X79986644Y-95241570D01*
X79986637Y-95241570D01*
X79985156Y-95241500D01*
X79573110Y-95241500D01*
X79514973Y-95246433D01*
X79406591Y-95255629D01*
X79406587Y-95255630D01*
X79401280Y-95256080D01*
X79396125Y-95257418D01*
X79396119Y-95257419D01*
X79183297Y-95312657D01*
X79183293Y-95312658D01*
X79178128Y-95313999D01*
X79173262Y-95316191D01*
X79173259Y-95316192D01*
X79064980Y-95364968D01*
X78967925Y-95408688D01*
X78776681Y-95537441D01*
X78772824Y-95541120D01*
X78772822Y-95541122D01*
X78726800Y-95585025D01*
X78609865Y-95696576D01*
X78472246Y-95881542D01*
X78367760Y-96087051D01*
X78366178Y-96092145D01*
X78366177Y-96092148D01*
X78317501Y-96248910D01*
X78299393Y-96307227D01*
X78298692Y-96312516D01*
X78273206Y-96504812D01*
X78269102Y-96535774D01*
X78269302Y-96541103D01*
X78269302Y-96541105D01*
X78271895Y-96610167D01*
X78277751Y-96766158D01*
X78325093Y-96991791D01*
X78409776Y-97206221D01*
X78529377Y-97403317D01*
X78532874Y-97407347D01*
X78619438Y-97507103D01*
X78680477Y-97577445D01*
X78684608Y-97580832D01*
X78854627Y-97720240D01*
X78854633Y-97720244D01*
X78858755Y-97723624D01*
X78890250Y-97741552D01*
X78939555Y-97792632D01*
X78953417Y-97862262D01*
X78927434Y-97928333D01*
X78898284Y-97955573D01*
X78776681Y-98037441D01*
X78772824Y-98041120D01*
X78772822Y-98041122D01*
X78731133Y-98080892D01*
X78609865Y-98196576D01*
X78472246Y-98381542D01*
X78469830Y-98386293D01*
X78469828Y-98386297D01*
X78428395Y-98467790D01*
X78367760Y-98587051D01*
X78366178Y-98592145D01*
X78366177Y-98592148D01*
X78327054Y-98718144D01*
X78299393Y-98807227D01*
X78298692Y-98812516D01*
X78277045Y-98975846D01*
X78269102Y-99035774D01*
X78277751Y-99266158D01*
X78325093Y-99491791D01*
X78327051Y-99496750D01*
X78327052Y-99496752D01*
X78406348Y-99697540D01*
X78409776Y-99706221D01*
X78412543Y-99710780D01*
X78412544Y-99710783D01*
X78474998Y-99813703D01*
X78529377Y-99903317D01*
X78532874Y-99907347D01*
X78619438Y-100007103D01*
X78680477Y-100077445D01*
X78684608Y-100080832D01*
X78854627Y-100220240D01*
X78854633Y-100220244D01*
X78858755Y-100223624D01*
X78890250Y-100241552D01*
X78939555Y-100292632D01*
X78953417Y-100362262D01*
X78927434Y-100428333D01*
X78898284Y-100455573D01*
X78776681Y-100537441D01*
X78609865Y-100696576D01*
X78472246Y-100881542D01*
X78367760Y-101087051D01*
X78366178Y-101092145D01*
X78366177Y-101092148D01*
X78304115Y-101292020D01*
X78299393Y-101307227D01*
X78298692Y-101312516D01*
X78280718Y-101448134D01*
X78269102Y-101535774D01*
X76708000Y-101535774D01*
X76708000Y-94878134D01*
X90081500Y-94878134D01*
X90088255Y-94940316D01*
X90139385Y-95076705D01*
X90226739Y-95193261D01*
X90343295Y-95280615D01*
X90479684Y-95331745D01*
X90541866Y-95338500D01*
X92338134Y-95338500D01*
X92400316Y-95331745D01*
X92536705Y-95280615D01*
X92653261Y-95193261D01*
X92740615Y-95076705D01*
X92762799Y-95017529D01*
X92784598Y-94959382D01*
X92827240Y-94902618D01*
X92893802Y-94877918D01*
X92963150Y-94893126D01*
X92997817Y-94921114D01*
X93026250Y-94953938D01*
X93198126Y-95096632D01*
X93391000Y-95209338D01*
X93599692Y-95289030D01*
X93604760Y-95290061D01*
X93604763Y-95290062D01*
X93699862Y-95309410D01*
X93818597Y-95333567D01*
X93823772Y-95333757D01*
X93823774Y-95333757D01*
X94036673Y-95341564D01*
X94036677Y-95341564D01*
X94041837Y-95341753D01*
X94046957Y-95341097D01*
X94046959Y-95341097D01*
X94258288Y-95314025D01*
X94258289Y-95314025D01*
X94263416Y-95313368D01*
X94268366Y-95311883D01*
X94472429Y-95250661D01*
X94472434Y-95250659D01*
X94477384Y-95249174D01*
X94677994Y-95150896D01*
X94859860Y-95021173D01*
X95018096Y-94863489D01*
X95148453Y-94682077D01*
X95149776Y-94683028D01*
X95196645Y-94639857D01*
X95266580Y-94627625D01*
X95332026Y-94655144D01*
X95359875Y-94686994D01*
X95419987Y-94785088D01*
X95566250Y-94953938D01*
X95738126Y-95096632D01*
X95931000Y-95209338D01*
X96139692Y-95289030D01*
X96144760Y-95290061D01*
X96144763Y-95290062D01*
X96239862Y-95309410D01*
X96358597Y-95333567D01*
X96363772Y-95333757D01*
X96363774Y-95333757D01*
X96576673Y-95341564D01*
X96576677Y-95341564D01*
X96581837Y-95341753D01*
X96586957Y-95341097D01*
X96586959Y-95341097D01*
X96798288Y-95314025D01*
X96798289Y-95314025D01*
X96803416Y-95313368D01*
X96808366Y-95311883D01*
X97012429Y-95250661D01*
X97012434Y-95250659D01*
X97017384Y-95249174D01*
X97217994Y-95150896D01*
X97399860Y-95021173D01*
X97558096Y-94863489D01*
X97688453Y-94682077D01*
X97689776Y-94683028D01*
X97736645Y-94639857D01*
X97806580Y-94627625D01*
X97872026Y-94655144D01*
X97899875Y-94686994D01*
X97959987Y-94785088D01*
X98106250Y-94953938D01*
X98278126Y-95096632D01*
X98471000Y-95209338D01*
X98679692Y-95289030D01*
X98684760Y-95290061D01*
X98684763Y-95290062D01*
X98779862Y-95309410D01*
X98898597Y-95333567D01*
X98903772Y-95333757D01*
X98903774Y-95333757D01*
X99116673Y-95341564D01*
X99116677Y-95341564D01*
X99121837Y-95341753D01*
X99126957Y-95341097D01*
X99126959Y-95341097D01*
X99338288Y-95314025D01*
X99338289Y-95314025D01*
X99343416Y-95313368D01*
X99348366Y-95311883D01*
X99552429Y-95250661D01*
X99552434Y-95250659D01*
X99557384Y-95249174D01*
X99757994Y-95150896D01*
X99939860Y-95021173D01*
X100098096Y-94863489D01*
X100228453Y-94682077D01*
X100229776Y-94683028D01*
X100276645Y-94639857D01*
X100346580Y-94627625D01*
X100412026Y-94655144D01*
X100439875Y-94686994D01*
X100499987Y-94785088D01*
X100646250Y-94953938D01*
X100818126Y-95096632D01*
X101011000Y-95209338D01*
X101219692Y-95289030D01*
X101224760Y-95290061D01*
X101224763Y-95290062D01*
X101319862Y-95309410D01*
X101438597Y-95333567D01*
X101443772Y-95333757D01*
X101443774Y-95333757D01*
X101656673Y-95341564D01*
X101656677Y-95341564D01*
X101661837Y-95341753D01*
X101666957Y-95341097D01*
X101666959Y-95341097D01*
X101878288Y-95314025D01*
X101878289Y-95314025D01*
X101883416Y-95313368D01*
X101888366Y-95311883D01*
X102092429Y-95250661D01*
X102092434Y-95250659D01*
X102097384Y-95249174D01*
X102297994Y-95150896D01*
X102479860Y-95021173D01*
X102638096Y-94863489D01*
X102768453Y-94682077D01*
X102769776Y-94683028D01*
X102816645Y-94639857D01*
X102886580Y-94627625D01*
X102952026Y-94655144D01*
X102979875Y-94686994D01*
X103039987Y-94785088D01*
X103186250Y-94953938D01*
X103358126Y-95096632D01*
X103551000Y-95209338D01*
X103759692Y-95289030D01*
X103764760Y-95290061D01*
X103764763Y-95290062D01*
X103859862Y-95309410D01*
X103978597Y-95333567D01*
X103983772Y-95333757D01*
X103983774Y-95333757D01*
X104196673Y-95341564D01*
X104196677Y-95341564D01*
X104201837Y-95341753D01*
X104206957Y-95341097D01*
X104206959Y-95341097D01*
X104418288Y-95314025D01*
X104418289Y-95314025D01*
X104423416Y-95313368D01*
X104428366Y-95311883D01*
X104632429Y-95250661D01*
X104632434Y-95250659D01*
X104637384Y-95249174D01*
X104837994Y-95150896D01*
X105019860Y-95021173D01*
X105178096Y-94863489D01*
X105308453Y-94682077D01*
X105309776Y-94683028D01*
X105356645Y-94639857D01*
X105426580Y-94627625D01*
X105492026Y-94655144D01*
X105519875Y-94686994D01*
X105579987Y-94785088D01*
X105726250Y-94953938D01*
X105898126Y-95096632D01*
X106091000Y-95209338D01*
X106299692Y-95289030D01*
X106304760Y-95290061D01*
X106304763Y-95290062D01*
X106399862Y-95309410D01*
X106518597Y-95333567D01*
X106523772Y-95333757D01*
X106523774Y-95333757D01*
X106736673Y-95341564D01*
X106736677Y-95341564D01*
X106741837Y-95341753D01*
X106746957Y-95341097D01*
X106746959Y-95341097D01*
X106958288Y-95314025D01*
X106958289Y-95314025D01*
X106963416Y-95313368D01*
X106968366Y-95311883D01*
X107172429Y-95250661D01*
X107172434Y-95250659D01*
X107177384Y-95249174D01*
X107377994Y-95150896D01*
X107559860Y-95021173D01*
X107718096Y-94863489D01*
X107848453Y-94682077D01*
X107849776Y-94683028D01*
X107896645Y-94639857D01*
X107966580Y-94627625D01*
X108032026Y-94655144D01*
X108059875Y-94686994D01*
X108119987Y-94785088D01*
X108266250Y-94953938D01*
X108438126Y-95096632D01*
X108631000Y-95209338D01*
X108839692Y-95289030D01*
X108844760Y-95290061D01*
X108844763Y-95290062D01*
X108939862Y-95309410D01*
X109058597Y-95333567D01*
X109063772Y-95333757D01*
X109063774Y-95333757D01*
X109276673Y-95341564D01*
X109276677Y-95341564D01*
X109281837Y-95341753D01*
X109286957Y-95341097D01*
X109286959Y-95341097D01*
X109498288Y-95314025D01*
X109498289Y-95314025D01*
X109503416Y-95313368D01*
X109508366Y-95311883D01*
X109712429Y-95250661D01*
X109712434Y-95250659D01*
X109717384Y-95249174D01*
X109917994Y-95150896D01*
X110099860Y-95021173D01*
X110258096Y-94863489D01*
X110388453Y-94682077D01*
X110389776Y-94683028D01*
X110436645Y-94639857D01*
X110506580Y-94627625D01*
X110572026Y-94655144D01*
X110599875Y-94686994D01*
X110659987Y-94785088D01*
X110806250Y-94953938D01*
X110978126Y-95096632D01*
X111171000Y-95209338D01*
X111379692Y-95289030D01*
X111384760Y-95290061D01*
X111384763Y-95290062D01*
X111479862Y-95309410D01*
X111598597Y-95333567D01*
X111603772Y-95333757D01*
X111603774Y-95333757D01*
X111816673Y-95341564D01*
X111816677Y-95341564D01*
X111821837Y-95341753D01*
X111826957Y-95341097D01*
X111826959Y-95341097D01*
X112038288Y-95314025D01*
X112038289Y-95314025D01*
X112043416Y-95313368D01*
X112048366Y-95311883D01*
X112252429Y-95250661D01*
X112252434Y-95250659D01*
X112257384Y-95249174D01*
X112457994Y-95150896D01*
X112639860Y-95021173D01*
X112798096Y-94863489D01*
X112928453Y-94682077D01*
X112929776Y-94683028D01*
X112976645Y-94639857D01*
X113046580Y-94627625D01*
X113112026Y-94655144D01*
X113139875Y-94686994D01*
X113199987Y-94785088D01*
X113346250Y-94953938D01*
X113518126Y-95096632D01*
X113711000Y-95209338D01*
X113919692Y-95289030D01*
X113924760Y-95290061D01*
X113924763Y-95290062D01*
X114019862Y-95309410D01*
X114138597Y-95333567D01*
X114143772Y-95333757D01*
X114143774Y-95333757D01*
X114356673Y-95341564D01*
X114356677Y-95341564D01*
X114361837Y-95341753D01*
X114366957Y-95341097D01*
X114366959Y-95341097D01*
X114578288Y-95314025D01*
X114578289Y-95314025D01*
X114583416Y-95313368D01*
X114588366Y-95311883D01*
X114792429Y-95250661D01*
X114792434Y-95250659D01*
X114797384Y-95249174D01*
X114997994Y-95150896D01*
X115179860Y-95021173D01*
X115338096Y-94863489D01*
X115468453Y-94682077D01*
X115469776Y-94683028D01*
X115516645Y-94639857D01*
X115586580Y-94627625D01*
X115652026Y-94655144D01*
X115679875Y-94686994D01*
X115739987Y-94785088D01*
X115886250Y-94953938D01*
X116058126Y-95096632D01*
X116251000Y-95209338D01*
X116459692Y-95289030D01*
X116464760Y-95290061D01*
X116464763Y-95290062D01*
X116559862Y-95309410D01*
X116678597Y-95333567D01*
X116683772Y-95333757D01*
X116683774Y-95333757D01*
X116896673Y-95341564D01*
X116896677Y-95341564D01*
X116901837Y-95341753D01*
X116906957Y-95341097D01*
X116906959Y-95341097D01*
X117118288Y-95314025D01*
X117118289Y-95314025D01*
X117123416Y-95313368D01*
X117128366Y-95311883D01*
X117332429Y-95250661D01*
X117332434Y-95250659D01*
X117337384Y-95249174D01*
X117537994Y-95150896D01*
X117719860Y-95021173D01*
X117878096Y-94863489D01*
X118008453Y-94682077D01*
X118009776Y-94683028D01*
X118056645Y-94639857D01*
X118126580Y-94627625D01*
X118192026Y-94655144D01*
X118219875Y-94686994D01*
X118279987Y-94785088D01*
X118426250Y-94953938D01*
X118598126Y-95096632D01*
X118791000Y-95209338D01*
X118999692Y-95289030D01*
X119004760Y-95290061D01*
X119004763Y-95290062D01*
X119099862Y-95309410D01*
X119218597Y-95333567D01*
X119223772Y-95333757D01*
X119223774Y-95333757D01*
X119436673Y-95341564D01*
X119436677Y-95341564D01*
X119441837Y-95341753D01*
X119446957Y-95341097D01*
X119446959Y-95341097D01*
X119658288Y-95314025D01*
X119658289Y-95314025D01*
X119663416Y-95313368D01*
X119668366Y-95311883D01*
X119872429Y-95250661D01*
X119872434Y-95250659D01*
X119877384Y-95249174D01*
X120077994Y-95150896D01*
X120259860Y-95021173D01*
X120418096Y-94863489D01*
X120548453Y-94682077D01*
X120549640Y-94682930D01*
X120596960Y-94639362D01*
X120666897Y-94627145D01*
X120732338Y-94654678D01*
X120760166Y-94686511D01*
X120817694Y-94780388D01*
X120823777Y-94788699D01*
X120963213Y-94949667D01*
X120970580Y-94956883D01*
X121134434Y-95092916D01*
X121142881Y-95098831D01*
X121326756Y-95206279D01*
X121336042Y-95210729D01*
X121535001Y-95286703D01*
X121544899Y-95289579D01*
X121648250Y-95310606D01*
X121662299Y-95309410D01*
X121666000Y-95299065D01*
X121666000Y-92663102D01*
X121662082Y-92649758D01*
X121647806Y-92647771D01*
X121609324Y-92653660D01*
X121599288Y-92656051D01*
X121396868Y-92722212D01*
X121387359Y-92726209D01*
X121198463Y-92824542D01*
X121189738Y-92830036D01*
X121019433Y-92957905D01*
X121011726Y-92964748D01*
X120864590Y-93118717D01*
X120858109Y-93126722D01*
X120753498Y-93280074D01*
X120698587Y-93325076D01*
X120628062Y-93333247D01*
X120564315Y-93301993D01*
X120543618Y-93277509D01*
X120462822Y-93152617D01*
X120462820Y-93152614D01*
X120460014Y-93148277D01*
X120309670Y-92983051D01*
X120305619Y-92979852D01*
X120305615Y-92979848D01*
X120138414Y-92847800D01*
X120138410Y-92847798D01*
X120134359Y-92844598D01*
X120098028Y-92824542D01*
X120082136Y-92815769D01*
X119938789Y-92736638D01*
X119933920Y-92734914D01*
X119933916Y-92734912D01*
X119733087Y-92663795D01*
X119733083Y-92663794D01*
X119728212Y-92662069D01*
X119723119Y-92661162D01*
X119723116Y-92661161D01*
X119513373Y-92623800D01*
X119513367Y-92623799D01*
X119508284Y-92622894D01*
X119434452Y-92621992D01*
X119290081Y-92620228D01*
X119290079Y-92620228D01*
X119284911Y-92620165D01*
X119064091Y-92653955D01*
X118851756Y-92723357D01*
X118653607Y-92826507D01*
X118649474Y-92829610D01*
X118649471Y-92829612D01*
X118479100Y-92957530D01*
X118474965Y-92960635D01*
X118471393Y-92964373D01*
X118363729Y-93077037D01*
X118320629Y-93122138D01*
X118213201Y-93279621D01*
X118158293Y-93324621D01*
X118087768Y-93332792D01*
X118024021Y-93301538D01*
X118003324Y-93277054D01*
X117922822Y-93152617D01*
X117922820Y-93152614D01*
X117920014Y-93148277D01*
X117769670Y-92983051D01*
X117765619Y-92979852D01*
X117765615Y-92979848D01*
X117598414Y-92847800D01*
X117598410Y-92847798D01*
X117594359Y-92844598D01*
X117558028Y-92824542D01*
X117542136Y-92815769D01*
X117398789Y-92736638D01*
X117393920Y-92734914D01*
X117393916Y-92734912D01*
X117193087Y-92663795D01*
X117193083Y-92663794D01*
X117188212Y-92662069D01*
X117183119Y-92661162D01*
X117183116Y-92661161D01*
X116973373Y-92623800D01*
X116973367Y-92623799D01*
X116968284Y-92622894D01*
X116894452Y-92621992D01*
X116750081Y-92620228D01*
X116750079Y-92620228D01*
X116744911Y-92620165D01*
X116524091Y-92653955D01*
X116311756Y-92723357D01*
X116113607Y-92826507D01*
X116109474Y-92829610D01*
X116109471Y-92829612D01*
X115939100Y-92957530D01*
X115934965Y-92960635D01*
X115931393Y-92964373D01*
X115823729Y-93077037D01*
X115780629Y-93122138D01*
X115673201Y-93279621D01*
X115618293Y-93324621D01*
X115547768Y-93332792D01*
X115484021Y-93301538D01*
X115463324Y-93277054D01*
X115382822Y-93152617D01*
X115382820Y-93152614D01*
X115380014Y-93148277D01*
X115229670Y-92983051D01*
X115225619Y-92979852D01*
X115225615Y-92979848D01*
X115058414Y-92847800D01*
X115058410Y-92847798D01*
X115054359Y-92844598D01*
X115018028Y-92824542D01*
X115002136Y-92815769D01*
X114858789Y-92736638D01*
X114853920Y-92734914D01*
X114853916Y-92734912D01*
X114653087Y-92663795D01*
X114653083Y-92663794D01*
X114648212Y-92662069D01*
X114643119Y-92661162D01*
X114643116Y-92661161D01*
X114433373Y-92623800D01*
X114433367Y-92623799D01*
X114428284Y-92622894D01*
X114354452Y-92621992D01*
X114210081Y-92620228D01*
X114210079Y-92620228D01*
X114204911Y-92620165D01*
X113984091Y-92653955D01*
X113771756Y-92723357D01*
X113573607Y-92826507D01*
X113569474Y-92829610D01*
X113569471Y-92829612D01*
X113399100Y-92957530D01*
X113394965Y-92960635D01*
X113391393Y-92964373D01*
X113283729Y-93077037D01*
X113240629Y-93122138D01*
X113133201Y-93279621D01*
X113078293Y-93324621D01*
X113007768Y-93332792D01*
X112944021Y-93301538D01*
X112923324Y-93277054D01*
X112842822Y-93152617D01*
X112842820Y-93152614D01*
X112840014Y-93148277D01*
X112689670Y-92983051D01*
X112685619Y-92979852D01*
X112685615Y-92979848D01*
X112518414Y-92847800D01*
X112518410Y-92847798D01*
X112514359Y-92844598D01*
X112478028Y-92824542D01*
X112462136Y-92815769D01*
X112318789Y-92736638D01*
X112313920Y-92734914D01*
X112313916Y-92734912D01*
X112113087Y-92663795D01*
X112113083Y-92663794D01*
X112108212Y-92662069D01*
X112103119Y-92661162D01*
X112103116Y-92661161D01*
X111893373Y-92623800D01*
X111893367Y-92623799D01*
X111888284Y-92622894D01*
X111814452Y-92621992D01*
X111670081Y-92620228D01*
X111670079Y-92620228D01*
X111664911Y-92620165D01*
X111444091Y-92653955D01*
X111231756Y-92723357D01*
X111033607Y-92826507D01*
X111029474Y-92829610D01*
X111029471Y-92829612D01*
X110859100Y-92957530D01*
X110854965Y-92960635D01*
X110851393Y-92964373D01*
X110743729Y-93077037D01*
X110700629Y-93122138D01*
X110593201Y-93279621D01*
X110538293Y-93324621D01*
X110467768Y-93332792D01*
X110404021Y-93301538D01*
X110383324Y-93277054D01*
X110302822Y-93152617D01*
X110302820Y-93152614D01*
X110300014Y-93148277D01*
X110149670Y-92983051D01*
X110145619Y-92979852D01*
X110145615Y-92979848D01*
X109978414Y-92847800D01*
X109978410Y-92847798D01*
X109974359Y-92844598D01*
X109938028Y-92824542D01*
X109922136Y-92815769D01*
X109778789Y-92736638D01*
X109773920Y-92734914D01*
X109773916Y-92734912D01*
X109573087Y-92663795D01*
X109573083Y-92663794D01*
X109568212Y-92662069D01*
X109563119Y-92661162D01*
X109563116Y-92661161D01*
X109353373Y-92623800D01*
X109353367Y-92623799D01*
X109348284Y-92622894D01*
X109274452Y-92621992D01*
X109130081Y-92620228D01*
X109130079Y-92620228D01*
X109124911Y-92620165D01*
X108904091Y-92653955D01*
X108691756Y-92723357D01*
X108493607Y-92826507D01*
X108489474Y-92829610D01*
X108489471Y-92829612D01*
X108319100Y-92957530D01*
X108314965Y-92960635D01*
X108311393Y-92964373D01*
X108203729Y-93077037D01*
X108160629Y-93122138D01*
X108053201Y-93279621D01*
X107998293Y-93324621D01*
X107927768Y-93332792D01*
X107864021Y-93301538D01*
X107843324Y-93277054D01*
X107762822Y-93152617D01*
X107762820Y-93152614D01*
X107760014Y-93148277D01*
X107609670Y-92983051D01*
X107605619Y-92979852D01*
X107605615Y-92979848D01*
X107438414Y-92847800D01*
X107438410Y-92847798D01*
X107434359Y-92844598D01*
X107398028Y-92824542D01*
X107382136Y-92815769D01*
X107238789Y-92736638D01*
X107233920Y-92734914D01*
X107233916Y-92734912D01*
X107033087Y-92663795D01*
X107033083Y-92663794D01*
X107028212Y-92662069D01*
X107023119Y-92661162D01*
X107023116Y-92661161D01*
X106813373Y-92623800D01*
X106813367Y-92623799D01*
X106808284Y-92622894D01*
X106734452Y-92621992D01*
X106590081Y-92620228D01*
X106590079Y-92620228D01*
X106584911Y-92620165D01*
X106364091Y-92653955D01*
X106151756Y-92723357D01*
X105953607Y-92826507D01*
X105949474Y-92829610D01*
X105949471Y-92829612D01*
X105779100Y-92957530D01*
X105774965Y-92960635D01*
X105771393Y-92964373D01*
X105663729Y-93077037D01*
X105620629Y-93122138D01*
X105513201Y-93279621D01*
X105458293Y-93324621D01*
X105387768Y-93332792D01*
X105324021Y-93301538D01*
X105303324Y-93277054D01*
X105222822Y-93152617D01*
X105222820Y-93152614D01*
X105220014Y-93148277D01*
X105069670Y-92983051D01*
X105065619Y-92979852D01*
X105065615Y-92979848D01*
X104898414Y-92847800D01*
X104898410Y-92847798D01*
X104894359Y-92844598D01*
X104858028Y-92824542D01*
X104842136Y-92815769D01*
X104698789Y-92736638D01*
X104693920Y-92734914D01*
X104693916Y-92734912D01*
X104493087Y-92663795D01*
X104493083Y-92663794D01*
X104488212Y-92662069D01*
X104483119Y-92661162D01*
X104483116Y-92661161D01*
X104273373Y-92623800D01*
X104273367Y-92623799D01*
X104268284Y-92622894D01*
X104194452Y-92621992D01*
X104050081Y-92620228D01*
X104050079Y-92620228D01*
X104044911Y-92620165D01*
X103824091Y-92653955D01*
X103611756Y-92723357D01*
X103413607Y-92826507D01*
X103409474Y-92829610D01*
X103409471Y-92829612D01*
X103239100Y-92957530D01*
X103234965Y-92960635D01*
X103231393Y-92964373D01*
X103123729Y-93077037D01*
X103080629Y-93122138D01*
X102973201Y-93279621D01*
X102918293Y-93324621D01*
X102847768Y-93332792D01*
X102784021Y-93301538D01*
X102763324Y-93277054D01*
X102682822Y-93152617D01*
X102682820Y-93152614D01*
X102680014Y-93148277D01*
X102529670Y-92983051D01*
X102525619Y-92979852D01*
X102525615Y-92979848D01*
X102358414Y-92847800D01*
X102358410Y-92847798D01*
X102354359Y-92844598D01*
X102318028Y-92824542D01*
X102302136Y-92815769D01*
X102158789Y-92736638D01*
X102153920Y-92734914D01*
X102153916Y-92734912D01*
X101953087Y-92663795D01*
X101953083Y-92663794D01*
X101948212Y-92662069D01*
X101943119Y-92661162D01*
X101943116Y-92661161D01*
X101733373Y-92623800D01*
X101733367Y-92623799D01*
X101728284Y-92622894D01*
X101654452Y-92621992D01*
X101510081Y-92620228D01*
X101510079Y-92620228D01*
X101504911Y-92620165D01*
X101284091Y-92653955D01*
X101071756Y-92723357D01*
X100873607Y-92826507D01*
X100869474Y-92829610D01*
X100869471Y-92829612D01*
X100699100Y-92957530D01*
X100694965Y-92960635D01*
X100691393Y-92964373D01*
X100583729Y-93077037D01*
X100540629Y-93122138D01*
X100433201Y-93279621D01*
X100378293Y-93324621D01*
X100307768Y-93332792D01*
X100244021Y-93301538D01*
X100223324Y-93277054D01*
X100142822Y-93152617D01*
X100142820Y-93152614D01*
X100140014Y-93148277D01*
X99989670Y-92983051D01*
X99985619Y-92979852D01*
X99985615Y-92979848D01*
X99818414Y-92847800D01*
X99818410Y-92847798D01*
X99814359Y-92844598D01*
X99778028Y-92824542D01*
X99762136Y-92815769D01*
X99618789Y-92736638D01*
X99613920Y-92734914D01*
X99613916Y-92734912D01*
X99413087Y-92663795D01*
X99413083Y-92663794D01*
X99408212Y-92662069D01*
X99403119Y-92661162D01*
X99403116Y-92661161D01*
X99193373Y-92623800D01*
X99193367Y-92623799D01*
X99188284Y-92622894D01*
X99114452Y-92621992D01*
X98970081Y-92620228D01*
X98970079Y-92620228D01*
X98964911Y-92620165D01*
X98744091Y-92653955D01*
X98531756Y-92723357D01*
X98333607Y-92826507D01*
X98329474Y-92829610D01*
X98329471Y-92829612D01*
X98159100Y-92957530D01*
X98154965Y-92960635D01*
X98151393Y-92964373D01*
X98043729Y-93077037D01*
X98000629Y-93122138D01*
X97893201Y-93279621D01*
X97838293Y-93324621D01*
X97767768Y-93332792D01*
X97704021Y-93301538D01*
X97683324Y-93277054D01*
X97602822Y-93152617D01*
X97602820Y-93152614D01*
X97600014Y-93148277D01*
X97449670Y-92983051D01*
X97445619Y-92979852D01*
X97445615Y-92979848D01*
X97278414Y-92847800D01*
X97278410Y-92847798D01*
X97274359Y-92844598D01*
X97238028Y-92824542D01*
X97222136Y-92815769D01*
X97078789Y-92736638D01*
X97073920Y-92734914D01*
X97073916Y-92734912D01*
X96873087Y-92663795D01*
X96873083Y-92663794D01*
X96868212Y-92662069D01*
X96863119Y-92661162D01*
X96863116Y-92661161D01*
X96653373Y-92623800D01*
X96653367Y-92623799D01*
X96648284Y-92622894D01*
X96574452Y-92621992D01*
X96430081Y-92620228D01*
X96430079Y-92620228D01*
X96424911Y-92620165D01*
X96204091Y-92653955D01*
X95991756Y-92723357D01*
X95793607Y-92826507D01*
X95789474Y-92829610D01*
X95789471Y-92829612D01*
X95619100Y-92957530D01*
X95614965Y-92960635D01*
X95611393Y-92964373D01*
X95503729Y-93077037D01*
X95460629Y-93122138D01*
X95353201Y-93279621D01*
X95298293Y-93324621D01*
X95227768Y-93332792D01*
X95164021Y-93301538D01*
X95143324Y-93277054D01*
X95062822Y-93152617D01*
X95062820Y-93152614D01*
X95060014Y-93148277D01*
X94909670Y-92983051D01*
X94905619Y-92979852D01*
X94905615Y-92979848D01*
X94738414Y-92847800D01*
X94738410Y-92847798D01*
X94734359Y-92844598D01*
X94698028Y-92824542D01*
X94682136Y-92815769D01*
X94538789Y-92736638D01*
X94533920Y-92734914D01*
X94533916Y-92734912D01*
X94333087Y-92663795D01*
X94333083Y-92663794D01*
X94328212Y-92662069D01*
X94323119Y-92661162D01*
X94323116Y-92661161D01*
X94113373Y-92623800D01*
X94113367Y-92623799D01*
X94108284Y-92622894D01*
X94034452Y-92621992D01*
X93890081Y-92620228D01*
X93890079Y-92620228D01*
X93884911Y-92620165D01*
X93664091Y-92653955D01*
X93451756Y-92723357D01*
X93253607Y-92826507D01*
X93249474Y-92829610D01*
X93249471Y-92829612D01*
X93079100Y-92957530D01*
X93074965Y-92960635D01*
X93018537Y-93019684D01*
X92994283Y-93045064D01*
X92932759Y-93080494D01*
X92861846Y-93077037D01*
X92804060Y-93035791D01*
X92785207Y-93002243D01*
X92743767Y-92891703D01*
X92740615Y-92883295D01*
X92653261Y-92766739D01*
X92536705Y-92679385D01*
X92400316Y-92628255D01*
X92338134Y-92621500D01*
X90541866Y-92621500D01*
X90479684Y-92628255D01*
X90343295Y-92679385D01*
X90226739Y-92766739D01*
X90139385Y-92883295D01*
X90088255Y-93019684D01*
X90081500Y-93081866D01*
X90081500Y-94878134D01*
X76708000Y-94878134D01*
X76708000Y-92074000D01*
X76728002Y-92005879D01*
X76781658Y-91959386D01*
X76834000Y-91948000D01*
X125096000Y-91948000D01*
X125164121Y-91968002D01*
G37*
%TD.AperFunction*%
M02*
