%TF.GenerationSoftware,KiCad,Pcbnew,(6.0.1)*%
%TF.CreationDate,2022-02-07T22:37:26-05:00*%
%TF.ProjectId,PDB-B,5044422d-422e-46b6-9963-61645f706362,rev?*%
%TF.SameCoordinates,Original*%
%TF.FileFunction,Copper,L1,Top*%
%TF.FilePolarity,Positive*%
%FSLAX46Y46*%
G04 Gerber Fmt 4.6, Leading zero omitted, Abs format (unit mm)*
G04 Created by KiCad (PCBNEW (6.0.1)) date 2022-02-07 22:37:26*
%MOMM*%
%LPD*%
G01*
G04 APERTURE LIST*
G04 Aperture macros list*
%AMRoundRect*
0 Rectangle with rounded corners*
0 $1 Rounding radius*
0 $2 $3 $4 $5 $6 $7 $8 $9 X,Y pos of 4 corners*
0 Add a 4 corners polygon primitive as box body*
4,1,4,$2,$3,$4,$5,$6,$7,$8,$9,$2,$3,0*
0 Add four circle primitives for the rounded corners*
1,1,$1+$1,$2,$3*
1,1,$1+$1,$4,$5*
1,1,$1+$1,$6,$7*
1,1,$1+$1,$8,$9*
0 Add four rect primitives between the rounded corners*
20,1,$1+$1,$2,$3,$4,$5,0*
20,1,$1+$1,$4,$5,$6,$7,0*
20,1,$1+$1,$6,$7,$8,$9,0*
20,1,$1+$1,$8,$9,$2,$3,0*%
G04 Aperture macros list end*
%TA.AperFunction,ComponentPad*%
%ADD10RoundRect,0.250000X-0.725000X0.600000X-0.725000X-0.600000X0.725000X-0.600000X0.725000X0.600000X0*%
%TD*%
%TA.AperFunction,ComponentPad*%
%ADD11O,1.950000X1.700000*%
%TD*%
%TA.AperFunction,ComponentPad*%
%ADD12C,2.667000*%
%TD*%
%TA.AperFunction,ComponentPad*%
%ADD13C,1.700000*%
%TD*%
%TA.AperFunction,ComponentPad*%
%ADD14O,1.700000X1.700000*%
%TD*%
%TA.AperFunction,Conductor*%
%ADD15C,1.524000*%
%TD*%
%TA.AperFunction,Conductor*%
%ADD16C,0.304800*%
%TD*%
G04 APERTURE END LIST*
D10*
X127000000Y-123250000D03*
D11*
X127000000Y-125750000D03*
X127000000Y-128250000D03*
X127000000Y-130750000D03*
D12*
X118618000Y-129540000D03*
D13*
X134620000Y-123190000D03*
D14*
X134620000Y-125730000D03*
X134620000Y-128270000D03*
X134620000Y-130810000D03*
D13*
X123190000Y-134620000D03*
D14*
X125730000Y-134620000D03*
X128270000Y-134620000D03*
X130810000Y-134620000D03*
D13*
X130810000Y-119380000D03*
D14*
X128270000Y-119380000D03*
X125730000Y-119380000D03*
X123190000Y-119380000D03*
D15*
X134560000Y-123250000D02*
X134620000Y-123190000D01*
X130623000Y-123250000D02*
X134560000Y-123250000D01*
X130810000Y-119380000D02*
X130810000Y-123063000D01*
X127000000Y-123250000D02*
X130623000Y-123250000D01*
X130810000Y-123063000D02*
X130623000Y-123250000D01*
D16*
X125349000Y-124460000D02*
X126639000Y-125750000D01*
X126639000Y-125750000D02*
X127000000Y-125750000D01*
X128270000Y-119380000D02*
X125349000Y-122301000D01*
X134600000Y-125750000D02*
X134620000Y-125730000D01*
X125349000Y-122301000D02*
X125349000Y-124460000D01*
X127000000Y-125750000D02*
X134600000Y-125750000D01*
X127000000Y-128250000D02*
X134600000Y-128250000D01*
X124841000Y-120269000D02*
X124841000Y-126091000D01*
X124841000Y-126091000D02*
X127000000Y-128250000D01*
X134600000Y-128250000D02*
X134620000Y-128270000D01*
X125730000Y-119380000D02*
X124841000Y-120269000D01*
D15*
X123190000Y-119380000D02*
X123190000Y-130175000D01*
X130997000Y-130750000D02*
X134560000Y-130750000D01*
X134560000Y-130750000D02*
X134620000Y-130810000D01*
X122615000Y-130750000D02*
X127000000Y-130750000D01*
X130810000Y-130937000D02*
X130997000Y-130750000D01*
X121479000Y-130750000D02*
X122615000Y-130750000D01*
X130810000Y-134620000D02*
X130810000Y-130937000D01*
X127000000Y-130750000D02*
X130997000Y-130750000D01*
X123190000Y-130175000D02*
X122615000Y-130750000D01*
X118618000Y-129540000D02*
X120269000Y-129540000D01*
X120269000Y-129540000D02*
X121479000Y-130750000D01*
M02*
