%TF.GenerationSoftware,KiCad,Pcbnew,(6.0.1)*%
%TF.CreationDate,2022-02-07T22:37:26-05:00*%
%TF.ProjectId,PDB-B,5044422d-422e-46b6-9963-61645f706362,rev?*%
%TF.SameCoordinates,Original*%
%TF.FileFunction,Legend,Bot*%
%TF.FilePolarity,Positive*%
%FSLAX46Y46*%
G04 Gerber Fmt 4.6, Leading zero omitted, Abs format (unit mm)*
G04 Created by KiCad (PCBNEW (6.0.1)) date 2022-02-07 22:37:26*
%MOMM*%
%LPD*%
G01*
G04 APERTURE LIST*
G04 Aperture macros list*
%AMRoundRect*
0 Rectangle with rounded corners*
0 $1 Rounding radius*
0 $2 $3 $4 $5 $6 $7 $8 $9 X,Y pos of 4 corners*
0 Add a 4 corners polygon primitive as box body*
4,1,4,$2,$3,$4,$5,$6,$7,$8,$9,$2,$3,0*
0 Add four circle primitives for the rounded corners*
1,1,$1+$1,$2,$3*
1,1,$1+$1,$4,$5*
1,1,$1+$1,$6,$7*
1,1,$1+$1,$8,$9*
0 Add four rect primitives between the rounded corners*
20,1,$1+$1,$2,$3,$4,$5,0*
20,1,$1+$1,$4,$5,$6,$7,0*
20,1,$1+$1,$6,$7,$8,$9,0*
20,1,$1+$1,$8,$9,$2,$3,0*%
G04 Aperture macros list end*
%ADD10C,0.150000*%
%ADD11RoundRect,0.250000X-0.725000X0.600000X-0.725000X-0.600000X0.725000X-0.600000X0.725000X0.600000X0*%
%ADD12O,1.950000X1.700000*%
%ADD13C,2.667000*%
%ADD14C,1.700000*%
%ADD15O,1.700000X1.700000*%
G04 APERTURE END LIST*
D10*
X120650000Y-120650000D02*
X133350000Y-120650000D01*
X133350000Y-120650000D02*
X133350000Y-133350000D01*
X133350000Y-133350000D02*
X120650000Y-133350000D01*
X120650000Y-133350000D02*
X120650000Y-120650000D01*
X125730000Y-117959190D02*
X125730000Y-118435380D01*
X126063333Y-117435380D02*
X125730000Y-117959190D01*
X125396666Y-117435380D01*
X122809047Y-136072571D02*
X123570952Y-136072571D01*
X131190952Y-117927428D02*
X130429047Y-117927428D01*
X123570952Y-117927428D02*
X122809047Y-117927428D01*
X123190000Y-118308380D02*
X123190000Y-117546476D01*
X128603333Y-117435380D02*
X127936666Y-118435380D01*
X127936666Y-117435380D02*
X128603333Y-118435380D01*
X128270000Y-136040809D02*
X128270000Y-135564619D01*
X127936666Y-136564619D02*
X128270000Y-136040809D01*
X128603333Y-136564619D01*
X130429047Y-136072571D02*
X131190952Y-136072571D01*
X130810000Y-135691619D02*
X130810000Y-136453523D01*
X125396666Y-136564619D02*
X126063333Y-135564619D01*
X126063333Y-136564619D02*
X125396666Y-135564619D01*
%LPC*%
D11*
X127000000Y-123250000D03*
D12*
X127000000Y-125750000D03*
X127000000Y-128250000D03*
X127000000Y-130750000D03*
D13*
X118618000Y-129540000D03*
D14*
X134620000Y-123190000D03*
D15*
X134620000Y-125730000D03*
X134620000Y-128270000D03*
X134620000Y-130810000D03*
D14*
X123190000Y-134620000D03*
D15*
X125730000Y-134620000D03*
X128270000Y-134620000D03*
X130810000Y-134620000D03*
D14*
X130810000Y-119380000D03*
D15*
X128270000Y-119380000D03*
X125730000Y-119380000D03*
X123190000Y-119380000D03*
M02*
